<svg width="157" height="123" viewBox="0 0 157 123" fill="none" xmlns="http://www.w3.org/2000/svg">
<g filter="url(#filter0_n_3_163)">
<rect width="149" height="123" rx="10" fill="#6750A4"/>
</g>
<mask id="path-2-outside-1_3_163" maskUnits="userSpaceOnUse" x="11.5359" y="8.66025" width="121.959" height="95.2391" fill="black">
<rect fill="white" x="11.5359" y="8.66025" width="121.959" height="95.2391"/>
<path d="M15.5853 67.7053C17.685 66.8057 19.4871 65.9998 20.9914 65.2877C22.4788 64.5462 23.7085 63.934 24.6806 63.4509C25.7992 62.8833 26.7165 62.3732 27.4326 61.9207C28.1779 61.4513 29.1764 60.777 30.4281 59.8981C31.4914 59.1669 32.8896 58.2032 34.6227 57.0072C36.3389 55.7818 38.4757 54.2354 41.033 52.368C41.4517 53.0254 41.8472 53.6766 42.2196 54.3216C42.6044 54.9204 42.9468 55.4458 43.247 55.898C43.5979 56.4381 43.9088 56.9427 44.1797 57.4118C44.4674 57.9102 44.802 58.5575 45.1835 59.3537C45.4973 60.0325 45.8686 60.9127 46.2975 61.9941C46.7388 63.0294 47.2169 64.2975 47.7317 65.7985C46.4071 64.4523 45.275 63.4054 44.3353 62.6579C43.3786 61.8812 42.5698 61.2927 41.9087 60.8925C41.1676 60.4213 40.5195 60.1114 39.9646 59.9627C39.4311 59.9189 38.8497 59.9613 38.2204 60.0901C37.6667 60.2144 36.9979 60.4441 36.2142 60.7793C35.4598 61.0976 34.6326 61.5947 33.7328 62.2705C35.8206 66.2252 37.5292 69.4216 38.8586 71.8595C40.188 74.2975 41.2273 76.1993 41.9767 77.5649C42.8783 79.1943 43.5323 80.3609 43.9385 81.0645C44.5434 82.0444 45.2717 82.9335 46.1235 83.7317C46.832 84.4172 47.704 85.0474 48.7395 85.6223C49.7751 86.1972 50.9859 86.534 52.3721 86.6328L47.0068 89.7305C46.5084 90.0182 45.9096 90.403 45.2105 90.8848C44.6287 91.2989 43.8709 91.8146 42.9373 92.4318C42.0329 93.0321 40.9927 93.7695 39.8167 94.644C39.8163 93.6278 39.7704 92.7357 39.6788 91.9676C39.5872 91.1996 39.4877 90.5534 39.3804 90.029C39.2516 89.3997 39.1127 88.8544 38.9637 88.3932C38.6545 87.7899 38.0422 86.5601 37.127 84.704C36.7331 83.9541 36.2377 83.0283 35.6407 81.9266C35.073 80.808 34.3869 79.4841 33.5822 77.955C32.8069 76.409 31.89 74.6515 30.8314 72.6826C29.7853 70.6675 28.5952 68.4032 27.2613 65.8896C26.6489 66.0477 26.159 66.3501 25.7914 66.7969C25.407 67.2143 25.1065 67.6419 24.8901 68.0795C24.6489 68.6097 24.4563 69.19 24.3121 69.8205C24.2187 70.539 24.166 71.4295 24.1539 72.4919C24.1328 73.4032 24.18 74.5683 24.2955 75.9871C24.394 77.3765 24.5717 79.0722 24.8283 81.074C23.7 79.4582 22.7933 78.1248 22.1084 77.0739C21.4065 75.9936 20.8632 75.1541 20.4784 74.5553C20.0259 73.8393 19.6981 73.3054 19.495 72.9536C19.3088 72.6311 19.034 72.2229 18.6707 71.729C18.3581 71.3231 17.9548 70.7937 17.4605 70.1408C16.9494 69.4586 16.3243 68.6468 15.5853 67.7053ZM56.6084 60.5562C57.3707 60.1161 58.2469 59.8057 59.2371 59.6249C60.2104 59.4148 61.2051 59.3096 62.2213 59.3093C63.2205 59.2796 64.1719 59.3363 65.0754 59.4792C65.9912 59.5759 66.7813 59.7257 67.4457 59.9285C68.6357 60.2969 69.7519 61.0793 70.7944 62.2756C71.8493 63.4257 72.6951 64.7551 73.3317 66.264C73.9513 67.7435 74.2941 69.2852 74.3601 70.8889C74.426 72.4927 74.0565 73.9179 73.2516 75.1644C72.6677 76.0488 72.0476 76.8368 71.3914 77.5284C70.7352 78.22 70.0745 78.836 69.4093 79.3764C68.744 79.9169 68.0889 80.3733 67.4439 80.7457C66.7989 81.1181 66.2334 81.4251 65.7473 81.6666C64.8339 82.1157 63.7326 82.3411 62.4435 82.3426C61.1837 82.3273 59.8917 82.1545 58.5675 81.8245C57.2726 81.4776 56.0527 80.9896 54.9077 80.3606C53.7459 79.7023 52.8524 78.9673 52.2273 78.1554C51.3574 77.0549 50.6002 75.8111 49.9557 74.4241C49.3113 73.037 49.0339 71.5749 49.1237 70.0376C49.2427 68.4834 49.8529 66.8997 50.9543 65.2865C52.085 63.6564 53.9697 62.0797 56.6084 60.5562ZM65.0087 78.4575C65.365 78.33 65.7625 78.0028 66.2011 77.4759C66.6227 76.9197 66.9535 76.2401 67.1935 75.437C67.4628 74.617 67.5826 73.7073 67.553 72.7081C67.5357 71.6626 67.2494 70.5574 66.6942 69.3925C66.1558 68.2569 65.5803 67.2601 64.9676 66.402C64.3842 65.527 63.7953 64.8115 63.2007 64.2557C62.5892 63.6705 62.0246 63.2342 61.5068 62.9468C60.9891 62.6594 60.5328 62.5123 60.138 62.5057C59.4873 62.5296 58.7678 62.6714 57.9795 62.931C57.1743 63.1614 56.5902 63.5377 56.2272 64.06C56.0603 64.3127 55.911 64.7312 55.7793 65.3154C55.6475 65.8997 55.575 66.5866 55.5617 67.3761C55.5315 68.1363 55.5814 68.9675 55.7114 69.8697C55.8707 70.755 56.1202 71.6273 56.46 72.4866C56.7997 73.3459 57.2613 74.2131 57.8447 75.0881C58.4574 75.9462 59.1473 76.7011 59.9144 77.3527C60.6646 77.9751 61.4729 78.4271 62.3392 78.7088C63.2178 78.9442 64.1077 78.8605 65.0087 78.4575ZM60.4785 42.7829C61.5893 42.3371 62.5512 41.9381 63.3643 41.5859C64.1774 41.2338 64.85 40.9432 65.3823 40.714C66.0025 40.4341 66.5263 40.1903 66.9537 39.9827C67.4567 39.7705 68.0115 39.4111 68.6181 38.9045C69.254 38.381 69.9339 37.8321 70.6578 37.2578C71.3648 36.6541 72.118 36.0629 72.9175 35.4841C73.7169 34.9052 74.5378 34.4313 75.3802 34.0622C75.9418 33.8161 76.6839 33.5441 77.6063 33.246C78.5288 32.948 79.5545 32.7272 80.6835 32.5836C81.8417 32.423 83.0677 32.3798 84.3613 32.4538C85.655 32.5278 86.9538 32.8139 88.2577 33.312C89.5617 33.8101 90.8353 34.5602 92.0785 35.5625C93.3217 36.5648 94.4719 37.9139 95.5293 39.6098C97.1068 42.1391 98.2264 44.62 98.8881 47.0525C99.5498 49.4851 99.726 51.7875 99.4165 53.9598C99.1363 56.1152 98.3622 58.1259 97.0939 59.9917C95.8257 61.8576 94.0442 63.5116 91.7495 64.9537C90.0457 66.1329 88.3628 67.2804 86.7007 68.3964C86.0016 68.8782 85.25 69.3707 84.4461 69.874C83.6714 70.3604 82.8967 70.8467 82.122 71.3331C81.3304 71.7901 80.5597 72.2155 79.8098 72.6094C79.0599 73.0033 78.3602 73.3486 77.7106 73.6454C78.1988 72.9336 78.555 72.298 78.7792 71.7385C79.0328 71.1621 79.2092 70.6889 79.3083 70.3189C79.4029 69.8734 79.4411 69.4995 79.423 69.1972C79.2954 68.8409 79.0194 68.1597 78.595 67.1538C78.226 66.3115 77.6916 65.115 76.9918 63.5644C76.292 62.0139 75.3169 59.9186 74.0664 57.2787L72.5275 54.004C71.5569 51.9843 70.7015 50.3673 69.9613 49.1528C69.2503 47.9214 68.6624 46.9708 68.1975 46.301C67.6356 45.5309 67.1713 44.9976 66.8047 44.7011C66.5012 44.4463 66.0613 44.1921 65.4849 43.9385C64.9885 43.756 64.3326 43.5678 63.5171 43.3741C62.714 43.1341 61.7012 42.9371 60.4785 42.7829ZM79.1016 53.6094C80.6668 56.1849 81.9582 58.117 82.9759 59.4058C84.0061 60.6484 84.8477 61.5307 85.5009 62.0526C86.2635 62.6287 86.8777 62.88 87.3435 62.8066C87.9005 62.485 88.3955 61.8865 88.8283 61.0111C89.2442 60.1065 89.5015 58.9611 89.6003 57.5749C89.7284 56.1718 89.6394 54.5618 89.3332 52.745C89.0562 50.9112 88.4742 48.9213 87.587 46.7753C86.6999 44.6293 85.6109 42.9125 84.3203 41.6249C83.0296 40.3373 81.7509 39.3751 80.4841 38.7383C79.2004 38.0721 78.0544 37.6783 77.046 37.5568C76.0208 37.406 75.3322 37.4322 74.9804 37.6353C74.57 37.8723 74.2712 38.2012 74.0841 38.6219C73.8801 39.0133 73.7049 39.7595 73.5587 40.8603C73.5025 41.44 73.5771 42.1787 73.7827 43.0764C73.9668 43.8693 74.3072 44.865 74.8038 46.0638C75.3004 47.2625 76.0859 48.7245 77.1601 50.4498L79.1016 53.6094ZM108.238 30.7476C109.001 30.3075 109.877 29.9971 110.867 29.8163C111.84 29.6062 112.835 29.501 113.851 29.5007C114.851 29.471 115.802 29.5277 116.705 29.6706C117.621 29.7673 118.411 29.9171 119.076 30.1199C120.266 30.4883 121.382 31.2707 122.424 32.467C123.479 33.6171 124.325 34.9465 124.962 36.4554C125.581 37.9349 125.924 39.4766 125.99 41.0803C126.056 42.6841 125.687 44.1093 124.882 45.3558C124.298 46.2402 123.678 47.0282 123.021 47.7198C122.365 48.4114 121.705 49.0274 121.039 49.5678C120.374 50.1083 119.719 50.5647 119.074 50.9371C118.429 51.3095 117.863 51.6165 117.377 51.858C116.464 52.3071 115.363 52.5325 114.074 52.534C112.814 52.5187 111.522 52.346 110.198 52.0159C108.903 51.669 107.683 51.181 106.538 50.552C105.376 49.8937 104.482 49.1587 103.857 48.3468C102.987 47.2463 102.23 46.0025 101.586 44.6155C100.941 43.2285 100.664 41.7663 100.754 40.229C100.873 38.6748 101.483 37.0911 102.584 35.4779C103.715 33.8478 105.6 32.2711 108.238 30.7476ZM116.639 48.6489C116.995 48.5214 117.393 48.1942 117.831 47.6673C118.253 47.1112 118.584 46.4315 118.823 45.6284C119.093 44.8084 119.213 43.8987 119.183 42.8995C119.166 41.854 118.879 40.7488 118.324 39.5839C117.786 38.4483 117.21 37.4515 116.598 36.5934C116.014 35.7184 115.425 35.0029 114.831 34.4471C114.219 33.8619 113.655 33.4257 113.137 33.1382C112.619 32.8508 112.163 32.7037 111.768 32.6971C111.117 32.721 110.398 32.8628 109.609 33.1224C108.804 33.3528 108.22 33.7291 107.857 34.2514C107.69 34.5041 107.541 34.9226 107.409 35.5068C107.277 36.0911 107.205 36.778 107.192 37.5675C107.161 38.3277 107.211 39.1589 107.341 40.0611C107.501 40.9464 107.75 41.8187 108.09 42.678C108.43 43.5373 108.891 44.4045 109.475 45.2795C110.087 46.1376 110.777 46.8925 111.544 47.5441C112.295 48.1665 113.103 48.6185 113.969 48.9002C114.848 49.1356 115.738 49.0519 116.639 48.6489Z"/>
</mask>
<path d="M15.5853 67.7053C17.685 66.8057 19.4871 65.9998 20.9914 65.2877C22.4788 64.5462 23.7085 63.934 24.6806 63.4509C25.7992 62.8833 26.7165 62.3732 27.4326 61.9207C28.1779 61.4513 29.1764 60.777 30.4281 59.8981C31.4914 59.1669 32.8896 58.2032 34.6227 57.0072C36.3389 55.7818 38.4757 54.2354 41.033 52.368C41.4517 53.0254 41.8472 53.6766 42.2196 54.3216C42.6044 54.9204 42.9468 55.4458 43.247 55.898C43.5979 56.4381 43.9088 56.9427 44.1797 57.4118C44.4674 57.9102 44.802 58.5575 45.1835 59.3537C45.4973 60.0325 45.8686 60.9127 46.2975 61.9941C46.7388 63.0294 47.2169 64.2975 47.7317 65.7985C46.4071 64.4523 45.275 63.4054 44.3353 62.6579C43.3786 61.8812 42.5698 61.2927 41.9087 60.8925C41.1676 60.4213 40.5195 60.1114 39.9646 59.9627C39.4311 59.9189 38.8497 59.9613 38.2204 60.0901C37.6667 60.2144 36.9979 60.4441 36.2142 60.7793C35.4598 61.0976 34.6326 61.5947 33.7328 62.2705C35.8206 66.2252 37.5292 69.4216 38.8586 71.8595C40.188 74.2975 41.2273 76.1993 41.9767 77.5649C42.8783 79.1943 43.5323 80.3609 43.9385 81.0645C44.5434 82.0444 45.2717 82.9335 46.1235 83.7317C46.832 84.4172 47.704 85.0474 48.7395 85.6223C49.7751 86.1972 50.9859 86.534 52.3721 86.6328L47.0068 89.7305C46.5084 90.0182 45.9096 90.403 45.2105 90.8848C44.6287 91.2989 43.8709 91.8146 42.9373 92.4318C42.0329 93.0321 40.9927 93.7695 39.8167 94.644C39.8163 93.6278 39.7704 92.7357 39.6788 91.9676C39.5872 91.1996 39.4877 90.5534 39.3804 90.029C39.2516 89.3997 39.1127 88.8544 38.9637 88.3932C38.6545 87.7899 38.0422 86.5601 37.127 84.704C36.7331 83.9541 36.2377 83.0283 35.6407 81.9266C35.073 80.808 34.3869 79.4841 33.5822 77.955C32.8069 76.409 31.89 74.6515 30.8314 72.6826C29.7853 70.6675 28.5952 68.4032 27.2613 65.8896C26.6489 66.0477 26.159 66.3501 25.7914 66.7969C25.407 67.2143 25.1065 67.6419 24.8901 68.0795C24.6489 68.6097 24.4563 69.19 24.3121 69.8205C24.2187 70.539 24.166 71.4295 24.1539 72.4919C24.1328 73.4032 24.18 74.5683 24.2955 75.9871C24.394 77.3765 24.5717 79.0722 24.8283 81.074C23.7 79.4582 22.7933 78.1248 22.1084 77.0739C21.4065 75.9936 20.8632 75.1541 20.4784 74.5553C20.0259 73.8393 19.6981 73.3054 19.495 72.9536C19.3088 72.6311 19.034 72.2229 18.6707 71.729C18.3581 71.3231 17.9548 70.7937 17.4605 70.1408C16.9494 69.4586 16.3243 68.6468 15.5853 67.7053ZM56.6084 60.5562C57.3707 60.1161 58.2469 59.8057 59.2371 59.6249C60.2104 59.4148 61.2051 59.3096 62.2213 59.3093C63.2205 59.2796 64.1719 59.3363 65.0754 59.4792C65.9912 59.5759 66.7813 59.7257 67.4457 59.9285C68.6357 60.2969 69.7519 61.0793 70.7944 62.2756C71.8493 63.4257 72.6951 64.7551 73.3317 66.264C73.9513 67.7435 74.2941 69.2852 74.3601 70.8889C74.426 72.4927 74.0565 73.9179 73.2516 75.1644C72.6677 76.0488 72.0476 76.8368 71.3914 77.5284C70.7352 78.22 70.0745 78.836 69.4093 79.3764C68.744 79.9169 68.0889 80.3733 67.4439 80.7457C66.7989 81.1181 66.2334 81.4251 65.7473 81.6666C64.8339 82.1157 63.7326 82.3411 62.4435 82.3426C61.1837 82.3273 59.8917 82.1545 58.5675 81.8245C57.2726 81.4776 56.0527 80.9896 54.9077 80.3606C53.7459 79.7023 52.8524 78.9673 52.2273 78.1554C51.3574 77.0549 50.6002 75.8111 49.9557 74.4241C49.3113 73.037 49.0339 71.5749 49.1237 70.0376C49.2427 68.4834 49.8529 66.8997 50.9543 65.2865C52.085 63.6564 53.9697 62.0797 56.6084 60.5562ZM65.0087 78.4575C65.365 78.33 65.7625 78.0028 66.2011 77.4759C66.6227 76.9197 66.9535 76.2401 67.1935 75.437C67.4628 74.617 67.5826 73.7073 67.553 72.7081C67.5357 71.6626 67.2494 70.5574 66.6942 69.3925C66.1558 68.2569 65.5803 67.2601 64.9676 66.402C64.3842 65.527 63.7953 64.8115 63.2007 64.2557C62.5892 63.6705 62.0246 63.2342 61.5068 62.9468C60.9891 62.6594 60.5328 62.5123 60.138 62.5057C59.4873 62.5296 58.7678 62.6714 57.9795 62.931C57.1743 63.1614 56.5902 63.5377 56.2272 64.06C56.0603 64.3127 55.911 64.7312 55.7793 65.3154C55.6475 65.8997 55.575 66.5866 55.5617 67.3761C55.5315 68.1363 55.5814 68.9675 55.7114 69.8697C55.8707 70.755 56.1202 71.6273 56.46 72.4866C56.7997 73.3459 57.2613 74.2131 57.8447 75.0881C58.4574 75.9462 59.1473 76.7011 59.9144 77.3527C60.6646 77.9751 61.4729 78.4271 62.3392 78.7088C63.2178 78.9442 64.1077 78.8605 65.0087 78.4575ZM60.4785 42.7829C61.5893 42.3371 62.5512 41.9381 63.3643 41.5859C64.1774 41.2338 64.85 40.9432 65.3823 40.714C66.0025 40.4341 66.5263 40.1903 66.9537 39.9827C67.4567 39.7705 68.0115 39.4111 68.6181 38.9045C69.254 38.381 69.9339 37.8321 70.6578 37.2578C71.3648 36.6541 72.118 36.0629 72.9175 35.4841C73.7169 34.9052 74.5378 34.4313 75.3802 34.0622C75.9418 33.8161 76.6839 33.5441 77.6063 33.246C78.5288 32.948 79.5545 32.7272 80.6835 32.5836C81.8417 32.423 83.0677 32.3798 84.3613 32.4538C85.655 32.5278 86.9538 32.8139 88.2577 33.312C89.5617 33.8101 90.8353 34.5602 92.0785 35.5625C93.3217 36.5648 94.4719 37.9139 95.5293 39.6098C97.1068 42.1391 98.2264 44.62 98.8881 47.0525C99.5498 49.4851 99.726 51.7875 99.4165 53.9598C99.1363 56.1152 98.3622 58.1259 97.0939 59.9917C95.8257 61.8576 94.0442 63.5116 91.7495 64.9537C90.0457 66.1329 88.3628 67.2804 86.7007 68.3964C86.0016 68.8782 85.25 69.3707 84.4461 69.874C83.6714 70.3604 82.8967 70.8467 82.122 71.3331C81.3304 71.7901 80.5597 72.2155 79.8098 72.6094C79.0599 73.0033 78.3602 73.3486 77.7106 73.6454C78.1988 72.9336 78.555 72.298 78.7792 71.7385C79.0328 71.1621 79.2092 70.6889 79.3083 70.3189C79.4029 69.8734 79.4411 69.4995 79.423 69.1972C79.2954 68.8409 79.0194 68.1597 78.595 67.1538C78.226 66.3115 77.6916 65.115 76.9918 63.5644C76.292 62.0139 75.3169 59.9186 74.0664 57.2787L72.5275 54.004C71.5569 51.9843 70.7015 50.3673 69.9613 49.1528C69.2503 47.9214 68.6624 46.9708 68.1975 46.301C67.6356 45.5309 67.1713 44.9976 66.8047 44.7011C66.5012 44.4463 66.0613 44.1921 65.4849 43.9385C64.9885 43.756 64.3326 43.5678 63.5171 43.3741C62.714 43.1341 61.7012 42.9371 60.4785 42.7829ZM79.1016 53.6094C80.6668 56.1849 81.9582 58.117 82.9759 59.4058C84.0061 60.6484 84.8477 61.5307 85.5009 62.0526C86.2635 62.6287 86.8777 62.88 87.3435 62.8066C87.9005 62.485 88.3955 61.8865 88.8283 61.0111C89.2442 60.1065 89.5015 58.9611 89.6003 57.5749C89.7284 56.1718 89.6394 54.5618 89.3332 52.745C89.0562 50.9112 88.4742 48.9213 87.587 46.7753C86.6999 44.6293 85.6109 42.9125 84.3203 41.6249C83.0296 40.3373 81.7509 39.3751 80.4841 38.7383C79.2004 38.0721 78.0544 37.6783 77.046 37.5568C76.0208 37.406 75.3322 37.4322 74.9804 37.6353C74.57 37.8723 74.2712 38.2012 74.0841 38.6219C73.8801 39.0133 73.7049 39.7595 73.5587 40.8603C73.5025 41.44 73.5771 42.1787 73.7827 43.0764C73.9668 43.8693 74.3072 44.865 74.8038 46.0638C75.3004 47.2625 76.0859 48.7245 77.1601 50.4498L79.1016 53.6094ZM108.238 30.7476C109.001 30.3075 109.877 29.9971 110.867 29.8163C111.84 29.6062 112.835 29.501 113.851 29.5007C114.851 29.471 115.802 29.5277 116.705 29.6706C117.621 29.7673 118.411 29.9171 119.076 30.1199C120.266 30.4883 121.382 31.2707 122.424 32.467C123.479 33.6171 124.325 34.9465 124.962 36.4554C125.581 37.9349 125.924 39.4766 125.99 41.0803C126.056 42.6841 125.687 44.1093 124.882 45.3558C124.298 46.2402 123.678 47.0282 123.021 47.7198C122.365 48.4114 121.705 49.0274 121.039 49.5678C120.374 50.1083 119.719 50.5647 119.074 50.9371C118.429 51.3095 117.863 51.6165 117.377 51.858C116.464 52.3071 115.363 52.5325 114.074 52.534C112.814 52.5187 111.522 52.346 110.198 52.0159C108.903 51.669 107.683 51.181 106.538 50.552C105.376 49.8937 104.482 49.1587 103.857 48.3468C102.987 47.2463 102.23 46.0025 101.586 44.6155C100.941 43.2285 100.664 41.7663 100.754 40.229C100.873 38.6748 101.483 37.0911 102.584 35.4779C103.715 33.8478 105.6 32.2711 108.238 30.7476ZM116.639 48.6489C116.995 48.5214 117.393 48.1942 117.831 47.6673C118.253 47.1112 118.584 46.4315 118.823 45.6284C119.093 44.8084 119.213 43.8987 119.183 42.8995C119.166 41.854 118.879 40.7488 118.324 39.5839C117.786 38.4483 117.21 37.4515 116.598 36.5934C116.014 35.7184 115.425 35.0029 114.831 34.4471C114.219 33.8619 113.655 33.4257 113.137 33.1382C112.619 32.8508 112.163 32.7037 111.768 32.6971C111.117 32.721 110.398 32.8628 109.609 33.1224C108.804 33.3528 108.22 33.7291 107.857 34.2514C107.69 34.5041 107.541 34.9226 107.409 35.5068C107.277 36.0911 107.205 36.778 107.192 37.5675C107.161 38.3277 107.211 39.1589 107.341 40.0611C107.501 40.9464 107.75 41.8187 108.09 42.678C108.43 43.5373 108.891 44.4045 109.475 45.2795C110.087 46.1376 110.777 46.8925 111.544 47.5441C112.295 48.1665 113.103 48.6185 113.969 48.9002C114.848 49.1356 115.738 49.0519 116.639 48.6489Z" fill="white"/>
<path d="M15.5853 67.7053L14.7977 65.8669L12.4045 66.8921L14.0121 68.9401L15.5853 67.7053ZM20.9914 65.2877L21.8472 67.0953L21.8655 67.0867L21.8837 67.0776L20.9914 65.2877ZM24.6806 63.4509L25.5706 65.242L25.5781 65.2382L25.5856 65.2344L24.6806 63.4509ZM27.4326 61.9207L26.3668 60.2283L26.3642 60.23L27.4326 61.9207ZM30.4281 59.8981L29.2948 58.2501L29.2867 58.2557L29.2786 58.2613L30.4281 59.8981ZM34.6227 57.0072L35.7587 58.6532L35.7719 58.6441L35.7849 58.6348L34.6227 57.0072ZM41.033 52.368L42.72 51.2937L41.5751 49.4957L39.8536 50.7528L41.033 52.368ZM42.2196 54.3216L40.4875 55.3216L40.5113 55.3628L40.5371 55.4028L42.2196 54.3216ZM43.247 55.898L44.9241 54.8083L44.9187 54.8001L44.9133 54.7919L43.247 55.898ZM45.1835 59.3537L46.999 58.5146L46.9931 58.502L46.9871 58.4894L45.1835 59.3537ZM46.2975 61.9941L44.4384 62.7315L44.4478 62.7551L44.4577 62.7785L46.2975 61.9941ZM47.7317 65.7985L46.306 67.2012L49.6235 65.1497L47.7317 65.7985ZM44.3353 62.6579L43.0746 64.2106L43.0824 64.2169L43.0903 64.2232L44.3353 62.6579ZM41.9087 60.8925L40.8357 62.5803L40.8542 62.5921L40.873 62.6034L41.9087 60.8925ZM39.9646 59.9627L40.4822 58.0308L40.308 57.9841L40.1283 57.9694L39.9646 59.9627ZM38.2204 60.0901L37.8194 58.1307L37.801 58.1345L37.7826 58.1386L38.2204 60.0901ZM36.2142 60.7793L36.9916 62.622L37.0007 62.6182L36.2142 60.7793ZM33.7328 62.2705L32.5317 60.6714L31.1678 61.6958L31.9642 63.2043L33.7328 62.2705ZM41.9767 77.5649L40.2233 78.527L40.2267 78.5332L41.9767 77.5649ZM43.9385 81.0645L42.2065 82.0645L42.2212 82.09L42.2366 82.115L43.9385 81.0645ZM46.1235 83.7317L47.5142 82.2944L47.5027 82.2833L47.4911 82.2724L46.1235 83.7317ZM52.3721 86.6328L53.3721 88.3649L59.0238 85.1019L52.5143 84.6379L52.3721 86.6328ZM45.2105 90.8848L44.0756 89.238L44.0631 89.2466L44.0508 89.2554L45.2105 90.8848ZM42.9373 92.4318L41.8343 90.7635L41.8312 90.7655L42.9373 92.4318ZM39.8167 94.644L37.8167 94.6446L37.8179 98.6224L41.01 96.2489L39.8167 94.644ZM39.3804 90.029L41.3398 89.628L39.3804 90.029ZM38.9637 88.3932L40.8668 87.7783L40.8172 87.6246L40.7435 87.4809L38.9637 88.3932ZM37.127 84.704L38.9207 83.8195L38.9094 83.7966L38.8976 83.774L37.127 84.704ZM35.6407 81.9266L33.8572 82.8317L33.8694 82.8557L33.8823 82.8794L35.6407 81.9266ZM33.5822 77.955L31.7944 78.8516L31.8032 78.869L31.8123 78.8863L33.5822 77.955ZM30.8314 72.6826L29.0564 73.6041L29.063 73.617L29.0699 73.6297L30.8314 72.6826ZM27.2613 65.8896L29.0279 64.9521L28.2886 63.5588L26.7613 63.9531L27.2613 65.8896ZM25.7914 66.7969L27.2625 68.1518L27.3004 68.1107L27.3359 68.0675L25.7914 66.7969ZM24.8901 68.0795L23.0973 67.1931L23.083 67.222L23.0697 67.2513L24.8901 68.0795ZM24.3121 69.8205L22.3624 69.3748L22.3411 69.468L22.3288 69.5628L24.3121 69.8205ZM24.1539 72.4919L26.1534 72.5383L26.1537 72.5264L26.1538 72.5146L24.1539 72.4919ZM24.2955 75.9871L26.2905 75.8455L26.2897 75.8352L26.2889 75.8248L24.2955 75.9871ZM24.8283 81.074L23.1886 82.2191L26.8121 80.8197L24.8283 81.074ZM22.1084 77.0739L20.4313 78.1635L20.4328 78.1659L22.1084 77.0739ZM20.4784 74.5553L18.7877 75.6238L18.7918 75.6302L18.7959 75.6366L20.4784 74.5553ZM18.6707 71.729L20.2817 70.5438L20.2687 70.5262L20.2554 70.5088L18.6707 71.729ZM17.4605 70.1408L15.86 71.3401L15.8659 71.3479L17.4605 70.1408ZM15.5853 67.7053L16.3729 69.5436C18.4878 68.6376 20.3138 67.8212 21.8472 67.0953L20.9914 65.2877L20.1356 63.48C18.6604 64.1784 16.8823 64.9738 14.7977 65.8669L15.5853 67.7053ZM20.9914 65.2877L21.8837 67.0776C23.3707 66.3363 24.5996 65.7245 25.5706 65.242L24.6806 63.4509L23.7906 61.6599C22.8175 62.1434 21.5869 62.7561 20.0991 63.4977L20.9914 65.2877ZM24.6806 63.4509L25.5856 65.2344C26.7363 64.6505 27.7134 64.1091 28.501 63.6114L27.4326 61.9207L26.3642 60.23C25.7197 60.6373 24.8621 61.116 23.7755 61.6674L24.6806 63.4509ZM27.4326 61.9207L28.4984 63.613C29.2853 63.1174 30.3152 62.4212 31.5775 61.5348L30.4281 59.8981L29.2786 58.2613C28.0377 59.1329 27.0706 59.7851 26.3668 60.2283L27.4326 61.9207ZM30.4281 59.8981L31.5613 61.546C32.6259 60.8139 34.0252 59.8496 35.7587 58.6532L34.6227 57.0072L33.4867 55.3611C31.754 56.5569 30.3568 57.5198 29.2948 58.2501L30.4281 59.8981ZM34.6227 57.0072L35.7849 58.6348C37.509 57.4038 39.6519 55.8529 42.2125 53.9832L41.033 52.368L39.8536 50.7528C37.2994 52.6178 35.1689 54.1597 33.4605 55.3795L34.6227 57.0072ZM41.033 52.368L39.3461 53.4423C39.7499 54.0764 40.1303 54.7028 40.4875 55.3216L42.2196 54.3216L43.9516 53.3216C43.5641 52.6504 43.1535 51.9744 42.72 51.2937L41.033 52.368ZM42.2196 54.3216L40.5371 55.4028C40.9257 56.0075 41.2737 56.5416 41.5807 57.0041L43.247 55.898L44.9133 54.7919C44.62 54.35 44.2831 53.8332 43.9021 53.2403L42.2196 54.3216ZM43.247 55.898L41.5699 56.9876C41.9052 57.5037 42.1972 57.9781 42.4476 58.4118L44.1797 57.4118L45.9117 56.4118C45.6204 55.9073 45.2907 55.3726 44.9241 54.8083L43.247 55.898ZM44.1797 57.4118L42.4476 58.4118C42.7001 58.8492 43.0102 59.4464 43.3798 60.2179L45.1835 59.3537L46.9871 58.4894C46.5939 57.6687 46.2347 56.9713 45.9117 56.4118L44.1797 57.4118ZM45.1835 59.3537L43.368 60.1927C43.6603 60.8251 44.0165 61.6678 44.4384 62.7315L46.2975 61.9941L48.1566 61.2568C47.7207 60.1576 47.3342 59.2399 46.999 58.5146L45.1835 59.3537ZM46.2975 61.9941L44.4577 62.7785C44.8742 63.7553 45.335 64.9752 45.8398 66.4473L47.7317 65.7985L49.6235 65.1497C49.0988 63.6198 48.6035 62.3034 48.1373 61.2098L46.2975 61.9941ZM47.7317 65.7985L49.1573 64.3958C47.8042 63.0205 46.6087 61.9107 45.5803 61.0927L44.3353 62.6579L43.0903 64.2232C43.9414 64.9002 45.0101 65.8841 46.306 67.2012L47.7317 65.7985ZM44.3353 62.6579L45.596 61.1053C44.6046 60.3003 43.716 59.6487 42.9445 59.1816L41.9087 60.8925L40.873 62.6034C41.4235 62.9367 42.1527 63.462 43.0746 64.2106L44.3353 62.6579ZM41.9087 60.8925L42.9818 59.2047C42.1496 58.6757 41.3085 58.2522 40.4822 58.0308L39.9646 59.9627L39.4469 61.8945C39.7306 61.9705 40.1855 62.167 40.8357 62.5803L41.9087 60.8925ZM39.9646 59.9627L40.1283 57.9694C39.3726 57.9073 38.5986 57.9713 37.8194 58.1307L38.2204 60.0901L38.6214 62.0495C39.1008 61.9514 39.4895 61.9304 39.8009 61.956L39.9646 59.9627ZM38.2204 60.0901L37.7826 58.1386C37.066 58.2994 36.274 58.5785 35.4277 58.9404L36.2142 60.7793L37.0007 62.6182C37.7219 62.3097 38.2673 62.1293 38.6583 62.0416L38.2204 60.0901ZM36.2142 60.7793L35.4367 58.9366C34.4874 59.3371 33.5173 59.9311 32.5317 60.6714L33.7328 62.2705L34.934 63.8697C35.748 63.2582 36.4321 62.8581 36.9916 62.622L36.2142 60.7793ZM33.7328 62.2705L31.9642 63.2043C34.054 67.1628 35.7672 70.3679 37.1027 72.817L38.8586 71.8595L40.6145 70.9021C39.2912 68.4752 37.5873 65.2877 35.5015 61.3368L33.7328 62.2705ZM38.8586 71.8595L37.1027 72.817C38.4324 75.2555 39.4727 77.1591 40.2233 78.527L41.9767 77.5649L43.73 76.6028C42.982 75.2395 41.9436 73.3395 40.6145 70.9021L38.8586 71.8595ZM41.9767 77.5649L40.2267 78.5332C41.1287 80.1633 41.7904 81.3438 42.2065 82.0645L43.9385 81.0645L45.6706 80.0645C45.2742 79.378 44.6279 78.2253 43.7266 76.5965L41.9767 77.5649ZM43.9385 81.0645L42.2366 82.115C42.9356 83.2474 43.7769 84.2736 44.7559 85.1911L46.1235 83.7317L47.4911 82.2724C46.7665 81.5934 46.1511 80.8414 45.6404 80.014L43.9385 81.0645ZM46.1235 83.7317L44.7328 85.1691C45.5893 85.9978 46.6099 86.7276 47.7688 87.3709L48.7395 85.6223L49.7103 83.8737C48.7981 83.3673 48.0747 82.8367 47.5142 82.2944L46.1235 83.7317ZM48.7395 85.6223L47.7688 87.3709C49.0997 88.1098 50.6029 88.5118 52.2299 88.6278L52.3721 86.6328L52.5143 84.6379C51.369 84.5562 50.4504 84.2846 49.7103 83.8737L48.7395 85.6223ZM52.3721 86.6328L51.3721 84.9008L46.0068 87.9984L47.0068 89.7305L48.0068 91.4625L53.3721 88.3649L52.3721 86.6328ZM47.0068 89.7305L46.0068 87.9984C45.4463 88.322 44.8 88.7388 44.0756 89.238L45.2105 90.8848L46.3455 92.5316C47.0192 92.0673 47.5705 91.7144 48.0068 91.4625L47.0068 89.7305ZM45.2105 90.8848L44.0508 89.2554C43.495 89.651 42.7582 90.1527 41.8343 90.7635L42.9373 92.4318L44.0402 94.1002C44.9836 93.4765 45.7623 92.9469 46.3702 92.5143L45.2105 90.8848ZM42.9373 92.4318L41.8312 90.7655C40.889 91.3909 39.8188 92.1501 38.6233 93.039L39.8167 94.644L41.01 96.2489C42.1667 95.3889 43.1768 94.6733 44.0434 94.0981L42.9373 92.4318ZM39.8167 94.644L41.8167 94.6433C41.8163 93.5711 41.768 92.5971 41.6647 91.7308L39.6788 91.9676L37.6929 92.2045C37.7727 92.8743 37.8164 93.6845 37.8167 94.6446L39.8167 94.644ZM39.6788 91.9676L41.6647 91.7308C41.5691 90.9296 41.4619 90.2247 41.3398 89.628L39.3804 90.029L37.421 90.4299C37.5135 90.882 37.6052 91.4696 37.6929 92.2045L39.6788 91.9676ZM39.3804 90.029L41.3398 89.628C41.2007 88.9481 41.0445 88.328 40.8668 87.7783L38.9637 88.3932L37.0606 89.0081C37.181 89.3808 37.3026 89.8512 37.421 90.4299L39.3804 90.029ZM38.9637 88.3932L40.7435 87.4809C40.4426 86.8938 39.8372 85.6781 38.9207 83.8195L37.127 84.704L35.3332 85.5885C36.2472 87.4422 36.8664 88.686 37.1839 89.3054L38.9637 88.3932ZM37.127 84.704L38.8976 83.774C38.4983 83.0138 37.9985 82.0798 37.3991 80.9738L35.6407 81.9266L33.8823 82.8794C34.4769 83.9768 34.9679 84.8944 35.3563 85.634L37.127 84.704ZM35.6407 81.9266L37.4242 81.0215C36.8508 79.8915 36.1598 78.5585 35.3521 77.0236L33.5822 77.955L31.8123 78.8863C32.6139 80.4097 33.2953 81.7244 33.8572 82.8317L35.6407 81.9266ZM33.5822 77.955L35.37 77.0584C34.5841 75.4914 33.6581 73.7166 32.593 71.7355L30.8314 72.6826L29.0699 73.6297C30.1219 75.5864 31.0297 77.3265 31.7944 78.8516L33.5822 77.955ZM30.8314 72.6826L32.6065 71.7611C31.5569 69.7395 30.364 67.4697 29.0279 64.9521L27.2613 65.8896L25.4947 66.8272C26.8264 69.3366 28.0136 71.5955 29.0564 73.6041L30.8314 72.6826ZM27.2613 65.8896L26.7613 63.9531C25.7794 64.2066 24.9087 64.7219 24.2469 65.5262L25.7914 66.7969L27.3359 68.0675C27.4092 67.9784 27.5185 67.8888 27.7612 67.8261L27.2613 65.8896ZM25.7914 66.7969L24.3203 65.442C23.8273 65.9773 23.4105 66.5597 23.0973 67.1931L24.8901 68.0795L26.683 68.966C26.8026 68.724 26.9867 68.4513 27.2625 68.1518L25.7914 66.7969ZM24.8901 68.0795L23.0697 67.2513C22.7669 67.9169 22.5334 68.627 22.3624 69.3748L24.3121 69.8205L26.2618 70.2663C26.3791 69.7531 26.531 69.3025 26.7106 68.9077L24.8901 68.0795ZM24.3121 69.8205L22.3288 69.5628C22.2218 70.386 22.1667 71.3608 22.1541 72.4692L24.1539 72.4919L26.1538 72.5146C26.1654 71.4982 26.2157 70.6921 26.2954 70.0783L24.3121 69.8205ZM24.1539 72.4919L22.1545 72.4455C22.1311 73.4537 22.1837 74.695 22.3021 76.1493L24.2955 75.9871L26.2889 75.8248C26.1763 74.4416 26.1345 73.3527 26.1534 72.5383L24.1539 72.4919ZM24.2955 75.9871L22.3005 76.1286C22.4026 77.5683 22.585 79.3041 22.8446 81.3284L24.8283 81.074L26.8121 80.8197C26.5583 78.8403 26.3855 77.1847 26.2905 75.8455L24.2955 75.9871ZM24.8283 81.074L26.4681 79.929C25.3459 78.322 24.4526 77.0078 23.7839 75.9818L22.1084 77.0739L20.4328 78.1659C21.134 79.2418 22.054 80.5944 23.1886 82.2191L24.8283 81.074ZM22.1084 77.0739L23.7855 75.9842C23.0842 74.9049 22.543 74.0687 22.1609 73.4741L20.4784 74.5553L18.7959 75.6366C19.1833 76.2396 19.7288 77.0823 20.4313 78.1635L22.1084 77.0739ZM20.4784 74.5553L22.1691 73.4869C21.719 72.7748 21.4091 72.2689 21.227 71.9536L19.495 72.9536L17.7629 73.9536C17.9871 74.3418 18.3327 74.9038 18.7877 75.6238L20.4784 74.5553ZM19.495 72.9536L21.227 71.9536C20.9881 71.5397 20.6647 71.0645 20.2817 70.5438L18.6707 71.729L17.0596 72.9141C17.4033 73.3812 17.6295 73.7224 17.7629 73.9536L19.495 72.9536ZM18.6707 71.729L20.2554 70.5088C19.9475 70.109 19.5478 69.5844 19.0552 68.9337L17.4605 70.1408L15.8659 71.3479C16.3617 72.0029 16.7687 72.5371 17.086 72.9491L18.6707 71.729ZM17.4605 70.1408L19.0611 68.9416C18.5382 68.2437 17.9034 67.4194 17.1585 66.4704L15.5853 67.7053L14.0121 68.9401C14.7452 69.8742 15.3606 70.6735 15.86 71.34L17.4605 70.1408ZM59.2371 59.6249L59.5963 61.5924L59.6278 61.5866L59.6591 61.5799L59.2371 59.6249ZM62.2213 59.3093L62.2219 61.3093L62.2513 61.3093L62.2806 61.3084L62.2213 59.3093ZM65.0754 59.4792L64.7628 61.4547L64.8139 61.4627L64.8653 61.4682L65.0754 59.4792ZM67.4457 59.9285L68.0372 58.0179L68.0296 58.0156L67.4457 59.9285ZM70.7944 62.2756L69.2866 63.5896L69.3033 63.6087L69.3206 63.6275L70.7944 62.2756ZM73.3317 66.264L75.1764 65.4913L75.1744 65.4865L73.3317 66.264ZM73.2516 75.1644L74.9206 76.2664L74.9263 76.2579L74.9318 76.2493L73.2516 75.1644ZM65.7473 81.6666L66.6299 83.4613L66.6373 83.4576L65.7473 81.6666ZM62.4435 82.3426L62.4191 84.3425L62.4325 84.3427L62.4459 84.3426L62.4435 82.3426ZM58.5675 81.8245L58.0499 83.7564L58.0668 83.7609L58.0838 83.7651L58.5675 81.8245ZM54.9077 80.3606L53.9219 82.1007L53.9333 82.1072L53.9448 82.1135L54.9077 80.3606ZM52.2273 78.1554L53.812 76.9353L53.8042 76.9252L53.7963 76.9151L52.2273 78.1554ZM49.1237 70.0376L47.1295 69.8848L47.1281 69.9029L47.1271 69.9211L49.1237 70.0376ZM50.9543 65.2865L49.311 64.1466L49.3068 64.1527L49.3026 64.1588L50.9543 65.2865ZM65.0087 78.4575L64.3347 76.5745L64.2623 76.6004L64.1922 76.6318L65.0087 78.4575ZM66.2011 77.4759L67.7382 78.7555L67.7673 78.7205L67.7948 78.6842L66.2011 77.4759ZM67.1935 75.437L65.2933 74.813L65.2849 74.8386L65.2772 74.8644L67.1935 75.437ZM67.553 72.7081L65.5532 72.7411L65.5534 72.7542L65.5538 72.7674L67.553 72.7081ZM66.6942 69.3925L64.887 70.2492L64.8888 70.2531L66.6942 69.3925ZM64.9676 66.402L63.3035 67.5114L63.3213 67.5381L63.3399 67.5642L64.9676 66.402ZM63.2007 64.2557L61.8179 65.7007L61.8264 65.7087L61.8349 65.7167L63.2007 64.2557ZM60.138 62.5057L60.1717 60.506L60.1182 60.5051L60.0647 60.507L60.138 62.5057ZM57.9795 62.931L58.5295 64.8539L58.5676 64.843L58.6052 64.8306L57.9795 62.931ZM56.2272 64.06L54.5849 62.9186L54.5713 62.9382L54.5582 62.958L56.2272 64.06ZM55.5617 67.3761L57.5601 67.4555L57.561 67.4326L57.5614 67.4097L55.5617 67.3761ZM55.7114 69.8697L53.7318 70.1549L53.7368 70.1895L53.743 70.2239L55.7114 69.8697ZM57.8447 75.0881L56.1806 76.1976L56.1984 76.2242L56.217 76.2503L57.8447 75.0881ZM59.9144 77.3527L58.6196 78.877L58.6285 78.8846L58.6375 78.8921L59.9144 77.3527ZM62.3392 78.7088L61.7207 80.6107L61.7707 80.627L61.8215 80.6406L62.3392 78.7088ZM56.6084 60.5562L57.6084 62.2883C58.1459 61.978 58.7997 61.7378 59.5963 61.5924L59.2371 59.6249L58.8779 57.6574C57.6941 57.8735 56.5955 58.2543 55.6084 58.8242L56.6084 60.5562ZM59.2371 59.6249L59.6591 61.5799C60.4911 61.4003 61.3445 61.3096 62.2219 61.3093L62.2213 59.3093L62.2206 57.3093C61.0657 57.3097 59.9297 57.4293 58.8151 57.6699L59.2371 59.6249ZM62.2213 59.3093L62.2806 61.3084C63.1668 61.2821 63.993 61.3329 64.7628 61.4547L65.0754 59.4792L65.3879 57.5038C64.3508 57.3397 63.2743 57.2772 62.162 57.3102L62.2213 59.3093ZM65.0754 59.4792L64.8653 61.4682C65.6927 61.5555 66.3513 61.6855 66.8618 61.8414L67.4457 59.9285L68.0296 58.0156C67.2113 57.7658 66.2897 57.5963 65.2854 57.4903L65.0754 59.4792ZM67.4457 59.9285L66.8542 61.839C67.6041 62.0712 68.4222 62.5976 69.2866 63.5896L70.7944 62.2756L72.3022 60.9616C71.0817 59.561 69.6672 58.5226 68.0372 58.018L67.4457 59.9285ZM70.7944 62.2756L69.3206 63.6275C70.213 64.6004 70.937 65.7332 71.489 67.0414L73.3317 66.264L75.1744 65.4865C74.4531 63.777 73.4857 62.2509 72.2683 60.9237L70.7944 62.2756ZM73.3317 66.264L71.4869 67.0366C72.0147 68.2968 72.3056 69.6046 72.3617 70.9711L74.3601 70.8889L76.3584 70.8068C76.2827 68.9657 75.8879 67.1902 75.1764 65.4913L73.3317 66.264ZM74.3601 70.8889L72.3617 70.9711C72.4122 72.1978 72.1338 73.2085 71.5714 74.0795L73.2516 75.1644L74.9318 76.2493C75.9792 74.6272 76.4398 72.7876 76.3584 70.8068L74.3601 70.8889ZM73.2516 75.1644L71.5826 74.0624C71.0562 74.8597 70.5078 75.554 69.9406 76.1518L71.3914 77.5284L72.8423 78.905C73.5874 78.1196 74.2792 77.2379 74.9206 76.2664L73.2516 75.1644ZM71.3914 77.5284L69.9406 76.1518C69.3373 76.7876 68.7395 77.3437 68.1482 77.8241L69.4093 79.3764L70.6704 80.9287C71.4095 80.3282 72.1332 79.6523 72.8423 78.905L71.3914 77.5284ZM69.4093 79.3764L68.1482 77.8241C67.5531 78.3076 66.9848 78.7014 66.4439 79.0137L67.4439 80.7457L68.4439 82.4778C69.193 82.0453 69.9349 81.5262 70.6704 80.9287L69.4093 79.3764ZM67.4439 80.7457L66.4439 79.0137C65.8227 79.3723 65.2953 79.6579 64.8573 79.8755L65.7473 81.6666L66.6373 83.4576C67.1714 83.1922 67.775 82.8639 68.4439 82.4778L67.4439 80.7457ZM65.7473 81.6666L64.8648 79.8718C64.2883 80.1553 63.5041 80.3414 62.4411 80.3426L62.4435 82.3426L62.4459 84.3426C63.9612 84.3408 65.3796 84.0762 66.6299 83.4613L65.7473 81.6666ZM62.4435 82.3426L62.4679 80.3428C61.3752 80.3294 60.2375 80.1795 59.0512 79.8839L58.5675 81.8245L58.0838 83.7651C59.5459 84.1296 60.9922 84.3251 62.4191 84.3425L62.4435 82.3426ZM58.5675 81.8245L59.0851 79.8927C57.9413 79.5862 56.8713 79.1574 55.8707 78.6077L54.9077 80.3606L53.9448 82.1135C55.2341 82.8218 56.604 83.3689 58.0499 83.7564L58.5675 81.8245ZM54.9077 80.3606L55.8936 78.6205C54.8969 78.0558 54.2329 77.4819 53.812 76.9353L52.2273 78.1554L50.6426 79.3755C51.4718 80.4526 52.5948 81.3489 53.9219 82.1007L54.9077 80.3606ZM52.2273 78.1554L53.7963 76.9151C53.0315 75.9476 52.354 74.8394 51.7695 73.5814L49.9557 74.4241L48.1419 75.2668C48.8463 76.7828 49.6833 78.1622 50.6583 79.3957L52.2273 78.1554ZM49.9557 74.4241L51.7695 73.5814C51.2653 72.4962 51.0497 71.3638 51.1203 70.1541L49.1237 70.0376L47.1271 69.9211C47.0182 71.7859 47.3572 73.5779 48.1419 75.2668L49.9557 74.4241ZM49.1237 70.0376L51.1178 70.1904C51.2041 69.0635 51.6529 67.8103 52.6061 66.4142L50.9543 65.2865L49.3026 64.1588C48.053 65.9891 47.2813 67.9033 47.1295 69.8848L49.1237 70.0376ZM50.9543 65.2865L52.5977 66.4264C53.4944 65.1337 55.1015 63.7356 57.6084 62.2883L56.6084 60.5562L55.6084 58.8242C52.8379 60.4237 50.6757 62.1791 49.311 64.1466L50.9543 65.2865ZM65.0087 78.4575L65.6827 80.3405C66.5504 80.0299 67.2298 79.3662 67.7382 78.7555L66.2011 77.4759L64.6639 76.1964C64.5003 76.393 64.3792 76.5096 64.3029 76.5724C64.2224 76.6386 64.2332 76.6108 64.3347 76.5745L65.0087 78.4575ZM66.2011 77.4759L67.7948 78.6842C68.387 77.9031 68.8146 76.9973 69.1098 76.0096L67.1935 75.437L65.2772 74.8644C65.0924 75.4829 64.8584 75.9364 64.6073 76.2677L66.2011 77.4759ZM67.1935 75.437L69.0936 76.061C69.4457 74.9888 69.5875 73.8438 69.5521 72.6488L67.553 72.7081L65.5538 72.7674C65.5777 73.5709 65.4798 74.2451 65.2933 74.813L67.1935 75.437ZM67.553 72.7081L69.5527 72.6751C69.5297 71.284 69.15 69.8965 68.4995 68.5319L66.6942 69.3925L64.8888 70.2531C65.3489 71.2183 65.5417 72.0411 65.5532 72.7411L67.553 72.7081ZM66.6942 69.3925L68.5014 68.5357C67.9217 67.3129 67.2883 66.2104 66.5953 65.2398L64.9676 66.402L63.3399 67.5642C63.8723 68.3098 64.39 69.2009 64.887 70.2492L66.6942 69.3925ZM64.9676 66.402L66.6317 65.2925C65.9862 64.3244 65.3009 63.4812 64.5666 62.7947L63.2007 64.2557L61.8349 65.7167C62.2896 66.1418 62.7823 66.7296 63.3035 67.5114L64.9676 66.402ZM63.2007 64.2557L64.5835 62.8107C63.8964 62.1532 63.194 61.5959 62.4776 61.1982L61.5068 62.9468L60.5361 64.6954C60.8553 64.8726 61.2821 65.1879 61.8179 65.7007L63.2007 64.2557ZM61.5068 62.9468L62.4776 61.1982C61.8048 60.8247 61.0182 60.5202 60.1717 60.506L60.138 62.5057L60.1044 64.5054C60.068 64.5048 60.0835 64.499 60.1628 64.5246C60.2422 64.5501 60.3656 64.6008 60.5361 64.6954L61.5068 62.9468ZM60.138 62.5057L60.0647 60.507C59.1828 60.5394 58.2742 60.7282 57.3538 61.0314L57.9795 62.931L58.6052 64.8306C59.2613 64.6145 59.7918 64.5198 60.2114 64.5044L60.138 62.5057ZM57.9795 62.931L57.4294 61.0082C56.3225 61.3248 55.2842 61.9123 54.5849 62.9186L56.2272 64.06L57.8695 65.2014C57.8961 65.1631 58.0261 64.9979 58.5295 64.8539L57.9795 62.931ZM56.2272 64.06L54.5582 62.958C54.1832 63.5259 53.9716 64.2398 53.8283 64.8754L55.7793 65.3154L57.7303 65.7554C57.7841 65.5168 57.8337 65.3479 57.8738 65.2354C57.917 65.1142 57.9321 65.1077 57.8962 65.162L56.2272 64.06ZM55.7793 65.3154L53.8283 64.8754C53.6586 65.6275 53.5769 66.4566 53.562 67.3424L55.5617 67.3761L57.5614 67.4097C57.5731 66.7165 57.6363 66.1719 57.7303 65.7554L55.7793 65.3154ZM55.5617 67.3761L53.5633 67.2967C53.5274 68.1998 53.5877 69.1549 53.7318 70.1549L55.7114 69.8697L57.6909 69.5845C57.575 68.7801 57.5356 68.0727 57.5601 67.4555L55.5617 67.3761ZM55.7114 69.8697L53.743 70.2239C53.9264 71.2431 54.2129 72.2429 54.6001 73.222L56.46 72.4866L58.3199 71.7513C58.0275 71.0117 57.815 70.267 57.6797 69.5155L55.7114 69.8697ZM56.46 72.4866L54.6001 73.222C54.9983 74.2291 55.5294 75.2209 56.1806 76.1976L57.8447 75.0881L59.5087 73.9787C58.9931 73.2053 58.6012 72.4628 58.3199 71.7513L56.46 72.4866ZM57.8447 75.0881L56.217 76.2503C56.9208 77.236 57.7212 78.1139 58.6196 78.877L59.9144 77.3527L61.2092 75.8284C60.5733 75.2883 59.9939 74.6565 59.4723 73.9259L57.8447 75.0881ZM59.9144 77.3527L58.6375 78.8921C59.5685 79.6644 60.5976 80.2455 61.7207 80.6107L62.3392 78.7088L62.9576 76.8068C62.3482 76.6086 61.7607 76.2857 61.1913 75.8134L59.9144 77.3527ZM62.3392 78.7088L61.8215 80.6406C63.1826 81.0053 64.543 80.8567 65.8252 80.2833L65.0087 78.4575L64.1922 76.6318C63.6724 76.8642 63.253 76.8831 62.8568 76.7769L62.3392 78.7088ZM60.4785 42.7829L59.7335 40.9269L52.5708 43.8019L60.2284 44.7672L60.4785 42.7829ZM65.3823 40.714L66.1731 42.5511L66.1891 42.5442L66.205 42.537L65.3823 40.714ZM66.9537 39.9827L66.1763 38.14L66.1274 38.1606L66.0797 38.1838L66.9537 39.9827ZM68.6181 38.9045L67.3469 37.3604L67.3361 37.3694L68.6181 38.9045ZM70.6578 37.2578L71.9009 38.8246L71.9291 38.8022L71.9565 38.7788L70.6578 37.2578ZM75.3802 34.0622L74.5776 32.2303L75.3802 34.0622ZM80.6835 32.5836L80.9358 34.5676L80.9469 34.5662L80.958 34.5646L80.6835 32.5836ZM92.0785 35.5625L90.8232 37.1195L92.0785 35.5625ZM95.5293 39.6098L93.8321 40.6679L93.8323 40.6682L95.5293 39.6098ZM99.4165 53.9598L97.4365 53.6778L97.4348 53.6899L97.4332 53.7021L99.4165 53.9598ZM97.0939 59.9917L95.4399 58.8674L97.0939 59.9917ZM91.7495 64.9537L90.6853 63.2603L90.6478 63.2839L90.6114 63.3091L91.7495 64.9537ZM86.7007 68.3964L85.5858 66.7359L85.5758 66.7427L85.5658 66.7496L86.7007 68.3964ZM84.4461 69.874L83.3849 68.1788L83.3826 68.1802L84.4461 69.874ZM82.122 71.3331L83.122 73.0651L83.1541 73.0466L83.1855 73.0269L82.122 71.3331ZM77.7106 73.6454L76.0612 72.5144L71.9827 78.462L78.5419 75.4645L77.7106 73.6454ZM78.7792 71.7385L76.9485 70.9331L76.9352 70.9635L76.9228 70.9944L78.7792 71.7385ZM79.3083 70.3189L81.2401 70.8366L81.2538 70.7857L81.2647 70.7343L79.3083 70.3189ZM79.423 69.1972L81.4194 69.0774L81.4023 68.7922L81.306 68.5232L79.423 69.1972ZM78.595 67.1538L80.4378 66.3764L80.4324 66.3638L80.4269 66.3512L78.595 67.1538ZM74.0664 57.2787L72.2563 58.1293L72.2589 58.1349L74.0664 57.2787ZM72.5275 54.004L74.3376 53.1534L74.3339 53.1455L74.3302 53.1377L72.5275 54.004ZM69.9613 49.1528L68.2292 50.1528L68.2411 50.1734L68.2535 50.1937L69.9613 49.1528ZM68.1975 46.301L69.8405 45.1607L69.8271 45.1413L69.8132 45.1222L68.1975 46.301ZM66.8047 44.7011L65.5187 46.2328L65.5327 46.2446L65.5471 46.2562L66.8047 44.7011ZM65.4849 43.9385L66.2902 42.1078L66.2335 42.0829L66.1753 42.0615L65.4849 43.9385ZM63.5171 43.3741L62.9445 45.2904L62.9993 45.3067L63.0549 45.3199L63.5171 43.3741ZM79.1016 53.6094L80.8108 52.5707L80.8056 52.5623L79.1016 53.6094ZM82.9759 59.4058L81.4063 60.6453L81.4211 60.664L81.4362 60.6823L82.9759 59.4058ZM85.5009 62.0526L84.2523 63.615L84.2736 63.6321L84.2954 63.6485L85.5009 62.0526ZM87.3435 62.8066L87.6551 64.7822L88.0219 64.7243L88.3435 64.5386L87.3435 62.8066ZM88.8283 61.0111L90.6211 61.8976L90.6336 61.8722L90.6455 61.8465L88.8283 61.0111ZM89.6003 57.5749L87.6086 57.393L87.6068 57.4128L87.6054 57.4327L89.6003 57.5749ZM89.3332 52.745L87.3556 53.0436L87.3581 53.0605L87.361 53.0774L89.3332 52.745ZM80.4841 38.7383L79.5629 40.5135L79.5743 40.5194L79.5858 40.5252L80.4841 38.7383ZM77.046 37.5568L76.755 39.5356L76.7809 39.5394L76.8068 39.5425L77.046 37.5568ZM74.0841 38.6219L75.8577 39.5463L75.8864 39.4912L75.9116 39.4345L74.0841 38.6219ZM73.5587 40.8603L71.5761 40.5969L71.5714 40.632L71.568 40.6673L73.5587 40.8603ZM73.7827 43.0764L71.8332 43.5228L71.8345 43.5288L73.7827 43.0764ZM77.1601 50.4498L78.8642 49.4027L78.8579 49.3926L77.1601 50.4498ZM60.4785 42.7829L61.2235 44.639C62.3457 44.1886 63.325 43.7825 64.1592 43.4212L63.3643 41.5859L62.5694 39.7507C61.7775 40.0937 60.833 40.4856 59.7335 40.9269L60.4785 42.7829ZM63.3643 41.5859L64.1592 43.4212C64.9715 43.0694 65.6427 42.7794 66.1731 42.5511L65.3823 40.714L64.5915 38.877C64.0574 39.1069 63.3832 39.3982 62.5694 39.7507L63.3643 41.5859ZM65.3823 40.714L66.205 42.537C66.8358 42.2523 67.3779 42.0002 67.8278 41.7816L66.9537 39.9827L66.0797 38.1838C65.6748 38.3805 65.1693 38.6159 64.5596 38.8911L65.3823 40.714ZM66.9537 39.9827L67.7312 41.8254C68.4783 41.5102 69.2031 41.0216 69.9001 40.4396L68.6181 38.9045L67.3361 37.3694C66.8198 37.8006 66.4351 38.0308 66.1763 38.14L66.9537 39.9827ZM68.6181 38.9045L69.8892 40.4486C70.5148 39.9336 71.1853 39.3923 71.9009 38.8246L70.6578 37.2578L69.4148 35.691C68.6826 36.2719 67.9932 36.8284 67.3469 37.3604L68.6181 38.9045ZM70.6578 37.2578L71.9565 38.7788C72.6205 38.2118 73.3315 37.6535 74.0904 37.104L72.9175 35.4841L71.7446 33.8641C70.9045 34.4723 70.1091 35.0964 69.3592 35.7367L70.6578 37.2578ZM72.9175 35.4841L74.0904 37.104C74.7827 36.6028 75.4802 36.2019 76.1828 35.8941L75.3802 34.0622L74.5776 32.2303C73.5955 32.6606 72.6512 33.2077 71.7446 33.8641L72.9175 35.4841ZM75.3802 34.0622L76.1828 35.8941C76.6585 35.6857 77.3305 35.437 78.2212 35.1492L77.6063 33.246L76.9914 31.3429C76.0372 31.6512 75.2251 31.9466 74.5776 32.2303L75.3802 34.0622ZM77.6063 33.246L78.2212 35.1492C79.0074 34.8952 79.9094 34.6981 80.9358 34.5676L80.6835 32.5836L80.4311 30.5996C79.1997 30.7562 78.0503 31.0008 76.9914 31.3429L77.6063 33.246ZM80.6835 32.5836L80.958 34.5646C81.9745 34.4238 83.0694 34.3832 84.2471 34.4505L84.3613 32.4538L84.4756 30.4571C83.0659 30.3764 81.7089 30.4223 80.4089 30.6025L80.6835 32.5836ZM84.3613 32.4538L84.2471 34.4505C85.3203 34.512 86.4173 34.7499 87.5441 35.1803L88.2577 33.312L88.9714 31.4437C87.4902 30.8779 85.9897 30.5437 84.4756 30.4571L84.3613 32.4538ZM88.2577 33.312L87.5441 35.1803C88.6264 35.5938 89.72 36.2302 90.8232 37.1195L92.0785 35.5625L93.3337 34.0055C91.9505 32.8903 90.497 32.0264 88.9714 31.4437L88.2577 33.312ZM92.0785 35.5625L90.8232 37.1195C91.8547 37.9511 92.8646 39.1161 93.8321 40.6679L95.5293 39.6098L97.2265 38.5517C96.0793 36.7116 94.7886 35.1784 93.3337 34.0055L92.0785 35.5625ZM95.5293 39.6098L93.8323 40.6682C95.3249 43.0613 96.3561 45.3638 96.9583 47.5775L98.8881 47.0525L100.818 46.5275C100.097 43.8761 98.8888 41.2168 97.2263 38.5514L95.5293 39.6098ZM98.8881 47.0525L96.9583 47.5775C97.559 49.7861 97.7022 51.8123 97.4365 53.6778L99.4165 53.9598L101.397 54.2419C101.75 51.7627 101.541 49.184 100.818 46.5275L98.8881 47.0525ZM99.4165 53.9598L97.4332 53.7021C97.195 55.5349 96.5389 57.2505 95.4399 58.8674L97.0939 59.9917L98.748 61.116C100.185 59.0012 101.078 56.6956 101.4 54.2176L99.4165 53.9598ZM97.0939 59.9917L95.4399 58.8674C94.3548 60.4638 92.7924 61.9361 90.6853 63.2603L91.7495 64.9537L92.8137 66.6471C95.2961 65.087 97.2966 63.2514 98.748 61.116L97.0939 59.9917ZM91.7495 64.9537L90.6114 63.3091C88.915 64.4831 87.2399 65.6254 85.5858 66.7359L86.7007 68.3964L87.8156 70.0568C89.4857 68.9354 91.1764 67.7826 92.8877 66.5983L91.7495 64.9537ZM86.7007 68.3964L85.5658 66.7496C84.8935 67.2129 84.1668 67.6893 83.3849 68.1788L84.4461 69.874L85.5072 71.5693C86.3333 71.0522 87.1097 70.5435 87.8356 70.0432L86.7007 68.3964ZM84.4461 69.874L83.3826 68.1802C83.3349 68.2102 83.3578 68.1958 83.31 68.2258C83.2622 68.2558 83.2852 68.2414 83.2374 68.2714C83.1896 68.3014 83.2125 68.287 83.1648 68.317C83.117 68.3469 83.1399 68.3326 83.0921 68.3626C83.0444 68.3925 83.0673 68.3782 83.0195 68.4081C82.9717 68.4381 82.9947 68.4237 82.9469 68.4537C82.8991 68.4837 82.922 68.4693 82.8743 68.4993C82.8265 68.5293 82.8494 68.5149 82.8016 68.5449C82.7539 68.5749 82.7768 68.5605 82.729 68.5905C82.6812 68.6205 82.7041 68.6061 82.6564 68.6361C82.6086 68.6661 82.6315 68.6517 82.5837 68.6817C82.536 68.7117 82.5589 68.6973 82.5111 68.7273C82.4633 68.7573 82.4863 68.7429 82.4385 68.7729C82.3907 68.8029 82.4136 68.7885 82.3659 68.8185C82.3181 68.8485 82.341 68.8341 82.2932 68.8641C82.2455 68.8941 82.2684 68.8797 82.2206 68.9097C82.1443 68.9576 81.7159 69.2266 81.6396 69.2745C81.5919 69.3044 81.542 69.3357 81.4944 69.3656C81.4467 69.3956 81.3968 69.4269 81.3491 69.4568C81.3014 69.4868 81.2515 69.5181 81.2039 69.548C81.1562 69.578 81.1063 69.6093 81.0586 69.6392L82.122 71.3331L83.1855 73.0269C83.187 73.026 83.1885 73.025 83.19 73.0241C83.1915 73.0231 83.193 73.0222 83.1945 73.0212C83.196 73.0203 83.1976 73.0193 83.1991 73.0184C83.2006 73.0174 83.2021 73.0165 83.2036 73.0155C83.2051 73.0146 83.2066 73.0136 83.2081 73.0127C83.2097 73.0117 83.2112 73.0108 83.2127 73.0098C83.2142 73.0089 83.2157 73.0079 83.2172 73.007C83.2187 73.006 83.2203 73.0051 83.2218 73.0041C83.2233 73.0032 83.2248 73.0022 83.2263 73.0013C83.2278 73.0003 83.2293 72.9994 83.2308 72.9984C83.2324 72.9975 83.2339 72.9965 83.2354 72.9956C83.2369 72.9946 83.2384 72.9937 83.2399 72.9927C83.2414 72.9918 83.2429 72.9908 83.2445 72.9899C83.246 72.9889 83.2475 72.988 83.249 72.987C83.2505 72.9861 83.252 72.9851 83.2535 72.9842C83.2551 72.9832 83.2566 72.9823 83.2581 72.9813C83.2596 72.9804 83.2611 72.9794 83.2626 72.9785C83.2641 72.9775 83.2656 72.9766 83.2672 72.9756C83.2687 72.9747 83.2702 72.9737 83.2717 72.9728C83.2732 72.9718 83.2747 72.9709 83.2762 72.9699C83.2777 72.969 83.2793 72.968 83.2808 72.9671C83.2823 72.9661 83.2838 72.9652 83.2853 72.9642C83.2868 72.9633 83.2883 72.9623 83.2899 72.9614C83.2914 72.9604 83.2929 72.9595 83.2944 72.9585C83.2959 72.9576 83.2974 72.9566 83.2989 72.9557C83.3004 72.9547 83.302 72.9538 83.3035 72.9528C83.305 72.9519 83.3065 72.9509 83.308 72.95C83.3095 72.949 83.311 72.9481 83.3125 72.9471C83.3141 72.9462 83.3156 72.9452 83.3171 72.9443C83.3186 72.9433 83.3201 72.9424 83.3216 72.9414C83.3231 72.9405 83.3247 72.9395 83.3262 72.9386C83.3277 72.9376 83.3292 72.9367 83.3307 72.9357C83.3322 72.9348 83.3337 72.9338 83.3352 72.9329C83.3368 72.9319 83.3383 72.931 83.3398 72.93C83.3413 72.9291 83.3428 72.9281 83.3443 72.9272C83.3458 72.9262 83.3473 72.9253 83.3489 72.9243C83.3504 72.9234 83.3519 72.9224 83.3534 72.9215C83.3549 72.9205 83.3564 72.9196 83.3579 72.9186C83.3595 72.9177 83.361 72.9167 83.3625 72.9158C83.364 72.9148 83.3655 72.9139 83.367 72.9129C83.3685 72.912 83.37 72.911 83.3716 72.9101C83.3731 72.9091 83.3746 72.9082 83.3761 72.9072C83.3776 72.9063 83.3791 72.9053 83.3806 72.9044C83.3821 72.9034 83.3837 72.9025 83.3852 72.9015C83.3867 72.9006 83.3882 72.8996 83.3897 72.8987C83.3912 72.8977 83.3927 72.8968 83.3943 72.8958C83.3958 72.8949 83.3973 72.8939 83.3988 72.893C83.4003 72.892 83.4018 72.8911 83.4033 72.8901C83.4048 72.8892 83.4064 72.8882 83.4079 72.8873C83.4094 72.8863 83.4109 72.8854 83.4124 72.8844C83.4139 72.8835 83.4154 72.8825 83.4169 72.8816C83.4185 72.8806 83.42 72.8797 83.4215 72.8787C83.423 72.8778 83.4245 72.8768 83.426 72.8759C83.4275 72.8749 83.429 72.874 83.4306 72.873C83.4321 72.8721 83.4336 72.8711 83.4351 72.8702C83.4366 72.8692 83.4381 72.8683 83.4396 72.8673C83.4412 72.8664 83.4427 72.8654 83.4442 72.8645C83.4457 72.8635 83.4472 72.8626 83.4487 72.8616C83.4502 72.8607 83.4517 72.8597 83.4533 72.8588C83.4548 72.8578 83.4563 72.8569 83.4578 72.8559C83.4593 72.855 83.4608 72.854 83.4623 72.8531C83.4638 72.8521 83.4654 72.8512 83.4669 72.8502C83.4684 72.8493 83.4699 72.8483 83.4714 72.8474C83.4729 72.8464 83.4744 72.8455 83.476 72.8445C83.4775 72.8436 83.479 72.8426 83.4805 72.8417C83.482 72.8407 83.4835 72.8398 83.485 72.8388C83.4865 72.8379 83.4881 72.8369 83.4896 72.836C83.4911 72.835 83.4926 72.8341 83.4941 72.8331C83.4956 72.8322 83.4971 72.8312 83.4986 72.8303C83.5002 72.8293 83.5017 72.8284 83.5032 72.8274C83.5047 72.8265 83.5062 72.8255 83.5077 72.8246C83.5092 72.8236 83.5108 72.8227 83.5123 72.8217C83.5138 72.8208 83.5153 72.8198 83.5168 72.8189C83.5183 72.8179 83.5198 72.817 83.5213 72.816C83.5229 72.8151 83.5244 72.8141 83.5259 72.8132C83.5274 72.8122 83.5289 72.8113 83.5304 72.8103C83.5319 72.8094 83.5334 72.8084 83.535 72.8075C83.5365 72.8065 83.538 72.8056 83.5395 72.8046C83.541 72.8037 83.5425 72.8027 83.544 72.8018C83.5456 72.8008 83.5471 72.7999 83.5486 72.7989C83.5501 72.798 83.5516 72.797 83.5531 72.7961C83.5546 72.7951 83.5561 72.7942 83.5577 72.7932C83.5592 72.7923 83.5607 72.7913 83.5622 72.7904C83.5637 72.7894 83.5652 72.7885 83.5667 72.7875C83.5682 72.7866 83.5698 72.7856 83.5713 72.7847C83.5728 72.7838 83.5743 72.7828 83.5758 72.7819C83.5773 72.7809 83.5788 72.78 83.5804 72.779C83.5819 72.7781 83.5834 72.7771 83.5849 72.7762C83.5864 72.7752 83.5879 72.7743 83.5894 72.7733C83.5909 72.7724 83.5925 72.7714 83.594 72.7705C83.5955 72.7695 83.597 72.7686 83.5985 72.7676C83.6 72.7667 83.6015 72.7657 83.603 72.7648C83.6046 72.7638 83.6061 72.7629 83.6076 72.7619C83.6091 72.761 83.6106 72.76 83.6121 72.7591C83.6136 72.7581 83.6152 72.7572 83.6167 72.7562C83.6182 72.7553 83.6197 72.7543 83.6212 72.7534C83.6227 72.7524 83.6242 72.7515 83.6257 72.7505C83.6273 72.7496 83.6288 72.7486 83.6303 72.7477C83.6318 72.7467 83.6333 72.7458 83.6348 72.7448C83.6363 72.7439 83.6378 72.7429 83.6394 72.742C83.6409 72.741 83.6424 72.7401 83.6439 72.7391C83.6454 72.7382 83.6469 72.7372 83.6484 72.7363C83.65 72.7353 83.6515 72.7344 83.653 72.7334C83.6545 72.7325 83.656 72.7315 83.6575 72.7306C83.659 72.7296 83.6605 72.7287 83.6621 72.7277C83.6636 72.7268 83.6651 72.7258 83.6666 72.7249C83.6681 72.7239 83.6696 72.723 83.6711 72.722C83.6726 72.7211 83.6742 72.7201 83.6757 72.7192C83.6772 72.7182 83.6787 72.7173 83.6802 72.7163C83.6817 72.7154 83.6832 72.7144 83.6848 72.7135C83.6863 72.7125 83.6878 72.7116 83.6893 72.7106C83.6908 72.7097 83.6923 72.7087 83.6938 72.7078C83.6953 72.7068 83.6969 72.7059 83.6984 72.7049C83.6999 72.704 83.7014 72.703 83.7029 72.7021C83.7044 72.7011 83.7059 72.7002 83.7074 72.6992C83.709 72.6983 83.7105 72.6973 83.712 72.6964C83.7135 72.6954 83.715 72.6945 83.7165 72.6935C83.718 72.6926 83.7196 72.6916 83.7211 72.6907C83.7226 72.6897 83.7241 72.6888 83.7256 72.6878C83.7271 72.6869 83.7286 72.6859 83.7301 72.685C83.7317 72.684 83.7332 72.6831 83.7347 72.6821C83.7362 72.6812 83.7377 72.6802 83.7392 72.6793C83.7407 72.6783 83.7422 72.6774 83.7438 72.6764C83.7453 72.6755 83.7468 72.6745 83.7483 72.6736C83.7498 72.6726 83.7513 72.6717 83.7528 72.6707C83.7544 72.6698 83.7559 72.6688 83.7574 72.6679C83.7589 72.6669 83.7604 72.666 83.7619 72.665C83.7634 72.6641 83.7649 72.6631 83.7665 72.6622C83.768 72.6612 83.7695 72.6603 83.771 72.6593C83.7725 72.6584 83.774 72.6574 83.7755 72.6565C83.777 72.6555 83.7786 72.6546 83.7801 72.6536C83.7816 72.6527 83.7831 72.6517 83.7846 72.6508C83.7861 72.6498 83.7876 72.6489 83.7892 72.6479C83.7907 72.647 83.7922 72.646 83.7937 72.6451C83.7952 72.6441 83.7967 72.6432 83.7982 72.6422C83.7997 72.6413 83.8013 72.6403 83.8028 72.6394C83.8043 72.6384 83.8058 72.6375 83.8073 72.6365C83.8088 72.6356 83.8103 72.6346 83.8118 72.6337C83.8134 72.6327 83.8149 72.6318 83.8164 72.6308C83.8179 72.6299 83.8194 72.6289 83.8209 72.628C83.8224 72.627 83.824 72.6261 83.8255 72.6251C83.827 72.6242 83.8285 72.6232 83.83 72.6223C83.8315 72.6213 83.833 72.6204 83.8345 72.6194C83.8361 72.6185 83.8376 72.6175 83.8391 72.6166C83.8406 72.6156 83.8421 72.6147 83.8436 72.6137C83.8451 72.6128 83.8466 72.6118 83.8482 72.6109C83.8497 72.6099 83.8512 72.609 83.8527 72.608C83.8542 72.6071 83.8557 72.6061 83.8572 72.6052C83.8588 72.6042 83.8603 72.6033 83.8618 72.6023C83.8633 72.6014 83.8648 72.6004 83.8663 72.5995C83.8678 72.5985 83.8693 72.5976 83.8709 72.5966C83.8724 72.5957 83.8739 72.5947 83.8754 72.5938C83.8769 72.5928 83.8784 72.5919 83.8799 72.5909C83.8814 72.59 83.883 72.589 83.8845 72.5881C83.886 72.5871 83.8875 72.5862 83.889 72.5852C83.8905 72.5843 83.892 72.5833 83.8936 72.5824C83.8951 72.5814 83.8966 72.5805 83.8981 72.5795C83.8996 72.5786 83.9011 72.5776 83.9026 72.5767C83.9041 72.5757 83.9057 72.5748 83.9072 72.5738C83.9087 72.5729 83.9102 72.5719 83.9117 72.571C83.9132 72.57 83.9147 72.5691 83.9162 72.5681C83.9178 72.5672 83.9193 72.5662 83.9208 72.5653C83.9223 72.5643 83.9238 72.5634 83.9253 72.5624C83.9268 72.5615 83.9284 72.5605 83.9299 72.5596C83.9314 72.5586 83.9329 72.5577 83.9344 72.5567C83.9359 72.5558 83.9374 72.5548 83.9389 72.5539C83.9405 72.5529 83.942 72.552 83.9435 72.551C83.945 72.5501 83.9465 72.5491 83.948 72.5482C83.9495 72.5472 83.951 72.5463 83.9526 72.5453C83.9541 72.5444 83.9556 72.5434 83.9571 72.5425C83.9586 72.5415 83.9601 72.5406 83.9616 72.5396C83.9632 72.5387 83.9647 72.5377 83.9662 72.5368C83.9677 72.5358 83.9692 72.5349 83.9707 72.5339C83.9722 72.533 83.9737 72.532 83.9753 72.5311C83.9768 72.5301 83.9783 72.5292 83.9798 72.5282C83.9813 72.5273 83.9828 72.5263 83.9843 72.5254C83.9858 72.5244 83.9874 72.5235 83.9889 72.5225C83.9904 72.5216 83.9919 72.5206 83.9934 72.5197C83.9949 72.5187 83.9964 72.5178 83.998 72.5168C83.9995 72.5159 84.001 72.5149 84.0025 72.514C84.004 72.513 84.0055 72.5121 84.007 72.5111C84.0085 72.5102 84.0101 72.5092 84.0116 72.5083C84.0131 72.5073 84.0146 72.5064 84.0161 72.5054C84.0176 72.5045 84.0191 72.5035 84.0206 72.5026C84.0222 72.5016 84.0237 72.5007 84.0252 72.4997C84.0267 72.4988 84.0282 72.4978 84.0297 72.4969C84.0312 72.4959 84.0328 72.495 84.0343 72.494C84.0358 72.4931 84.0373 72.4921 84.0388 72.4912C84.0403 72.4902 84.0418 72.4893 84.0433 72.4883C84.0449 72.4874 84.0464 72.4864 84.0479 72.4855C84.0494 72.4845 84.0509 72.4836 84.0524 72.4826C84.0539 72.4817 84.0554 72.4807 84.057 72.4798C84.0585 72.4788 84.06 72.4779 84.0615 72.4769C84.063 72.476 84.0645 72.475 84.066 72.4741C84.0676 72.4731 84.0691 72.4722 84.0706 72.4712C84.0721 72.4703 84.0736 72.4693 84.0751 72.4684C84.0766 72.4674 84.0781 72.4665 84.0797 72.4655C84.0812 72.4646 84.0827 72.4636 84.0842 72.4627C84.0857 72.4617 84.0872 72.4608 84.0887 72.4598C84.0902 72.4589 84.0918 72.4579 84.0933 72.457C84.0948 72.456 84.0963 72.4551 84.0978 72.4541C84.0993 72.4532 84.1008 72.4522 84.1024 72.4513C84.1039 72.4503 84.1054 72.4494 84.1069 72.4484C84.1084 72.4475 84.1099 72.4465 84.1114 72.4456C84.1129 72.4446 84.1145 72.4437 84.116 72.4427C84.1175 72.4418 84.119 72.4408 84.1205 72.4399C84.122 72.4389 84.1235 72.438 84.125 72.437C84.1266 72.4361 84.1281 72.4351 84.1296 72.4342C84.1311 72.4332 84.1326 72.4323 84.1341 72.4313C84.1356 72.4304 84.1372 72.4294 84.1387 72.4285C84.1402 72.4275 84.1417 72.4266 84.1432 72.4256C84.1447 72.4247 84.1462 72.4237 84.1477 72.4228C84.1493 72.4218 84.1508 72.4209 84.1523 72.4199C84.1538 72.419 84.1553 72.418 84.1568 72.4171C84.1583 72.4161 84.1598 72.4152 84.1614 72.4142C84.1629 72.4133 84.1644 72.4123 84.1659 72.4114C84.1674 72.4104 84.1689 72.4095 84.1704 72.4085C84.172 72.4076 84.1735 72.4066 84.175 72.4057C84.1765 72.4047 84.178 72.4038 84.1795 72.4028C84.181 72.4019 84.1825 72.4009 84.1841 72.4C84.1856 72.399 84.1871 72.3981 84.1886 72.3971C84.1901 72.3962 84.1916 72.3952 84.1931 72.3943C84.1946 72.3933 84.1962 72.3924 84.1977 72.3914C84.1992 72.3905 84.2007 72.3895 84.2022 72.3886C84.2037 72.3876 84.2052 72.3867 84.2068 72.3857C84.2083 72.3848 84.2098 72.3838 84.2113 72.3829C84.2128 72.3819 84.2143 72.381 84.2158 72.38C84.2173 72.3791 84.2189 72.3781 84.2204 72.3772C84.2219 72.3762 84.2234 72.3753 84.2249 72.3743C84.2264 72.3734 84.2279 72.3724 84.2294 72.3715C84.231 72.3705 84.2325 72.3696 84.234 72.3686C84.2355 72.3677 84.237 72.3667 84.2385 72.3658C84.24 72.3648 84.2416 72.3639 84.2431 72.3629C84.2446 72.362 84.2461 72.361 84.2476 72.3601C84.2491 72.3591 84.2506 72.3582 84.2521 72.3572C84.2537 72.3563 84.2552 72.3553 84.2567 72.3544C84.2582 72.3534 84.2597 72.3525 84.2612 72.3515C84.2627 72.3506 84.2642 72.3496 84.2658 72.3487C84.2673 72.3477 84.2688 72.3468 84.2703 72.3458C84.2718 72.3449 84.2733 72.3439 84.2748 72.343C84.2763 72.342 84.2779 72.3411 84.2794 72.3401C84.2809 72.3392 84.2824 72.3382 84.2839 72.3373C84.2854 72.3363 84.2869 72.3354 84.2885 72.3344C84.29 72.3335 84.2915 72.3325 84.293 72.3316C84.2945 72.3306 84.296 72.3297 84.2975 72.3287C84.299 72.3278 84.3006 72.3268 84.3021 72.3259C84.3036 72.3249 84.3051 72.324 84.3066 72.323C84.3081 72.3221 84.3096 72.3211 84.3111 72.3202C84.3127 72.3192 84.3142 72.3183 84.3157 72.3173C84.3172 72.3164 84.3187 72.3154 84.3202 72.3145C84.3217 72.3135 84.3233 72.3126 84.3248 72.3116C84.3263 72.3107 84.3278 72.3097 84.3293 72.3088C84.3308 72.3078 84.3323 72.3069 84.3338 72.3059C84.3354 72.305 84.3369 72.304 84.3384 72.3031C84.3399 72.3021 84.3414 72.3012 84.3429 72.3003C84.3444 72.2993 84.3459 72.2984 84.3475 72.2974C84.5144 72.1926 84.3258 72.311 84.4927 72.2062C84.6596 72.1014 84.4711 72.2198 84.638 72.115C84.8049 72.0102 84.6163 72.1286 84.7832 72.0238C84.9501 71.9191 84.7616 72.0374 84.9285 71.9326C85.0954 71.8279 84.9068 71.9462 85.0737 71.8414C85.2406 71.7367 85.0521 71.855 85.219 71.7503C85.3859 71.6455 85.1973 71.7638 85.3642 71.6591C85.5311 71.5543 85.3426 71.6727 85.5095 71.5679L84.4461 69.874ZM82.122 71.3331L81.122 69.601C80.3517 70.0458 79.6043 70.4582 78.8798 70.8388L79.8098 72.6094L80.7398 74.38C81.515 73.9729 82.3091 73.5344 83.122 73.0651L82.122 71.3331ZM79.8098 72.6094L78.8798 70.8388C78.1566 71.2186 77.4901 71.5473 76.8794 71.8264L77.7106 73.6454L78.5419 75.4645C79.2302 75.15 79.9632 74.7879 80.7398 74.38L79.8098 72.6094ZM77.7106 73.6454L79.3601 74.7765C79.8988 73.9909 80.339 73.2227 80.6356 72.4826L78.7792 71.7385L76.9228 70.9944C76.771 71.3732 76.4987 71.8763 76.0612 72.5144L77.7106 73.6454ZM78.7792 71.7385L80.6099 72.5438C80.882 71.9254 81.1033 71.3471 81.2401 70.8366L79.3083 70.3189L77.3764 69.8013C77.315 70.0306 77.1836 70.3987 76.9485 70.9331L78.7792 71.7385ZM79.3083 70.3189L81.2647 70.7343C81.3798 70.1919 81.4522 69.6249 81.4194 69.0774L79.423 69.1972L77.4266 69.3171C77.43 69.3741 77.4259 69.5548 77.3519 69.9035L79.3083 70.3189ZM79.423 69.1972L81.306 68.5232C81.1568 68.1064 80.8592 67.3753 80.4378 66.3764L78.595 67.1538L76.7523 67.9313C77.1797 68.9442 77.4341 69.5754 77.54 69.8713L79.423 69.1972ZM78.595 67.1538L80.4269 66.3512C80.0534 65.4987 79.5155 64.2944 78.8147 62.7417L76.9918 63.5644L75.1688 64.3871C75.8676 65.9356 76.3985 67.1242 76.7632 67.9565L78.595 67.1538ZM76.9918 63.5644L78.8147 62.7417C78.1076 61.1748 77.1265 59.0669 75.8739 56.4226L74.0664 57.2787L72.2589 58.1349C73.5073 60.7703 74.4764 62.8529 75.1688 64.3871L76.9918 63.5644ZM74.0664 57.2787L75.8765 56.4281L74.3376 53.1534L72.5275 54.004L70.7174 54.8546L72.2563 58.1293L74.0664 57.2787ZM72.5275 54.004L74.3302 53.1377C73.3452 51.088 72.4575 49.4054 71.669 48.1119L69.9613 49.1528L68.2535 50.1937C68.9455 51.3291 69.7687 52.8806 70.7249 54.8703L72.5275 54.004ZM69.9613 49.1528L71.6933 48.1528C70.9717 46.903 70.3519 45.8974 69.8405 45.1607L68.1975 46.301L66.5545 47.4414C66.9729 48.0443 67.5289 48.9398 68.2292 50.1528L69.9613 49.1528ZM68.1975 46.301L69.8132 45.1222C69.2308 44.324 68.641 43.614 68.0623 43.146L66.8047 44.7011L65.5471 46.2562C65.7016 46.3812 66.0404 46.7378 66.5819 47.4799L68.1975 46.301ZM66.8047 44.7011L68.0907 43.1694C67.5826 42.7427 66.9509 42.3985 66.2902 42.1078L65.4849 43.9385L64.6795 45.7692C65.1716 45.9857 65.4199 46.1498 65.5187 46.2328L66.8047 44.7011ZM65.4849 43.9385L66.1753 42.0615C65.5743 41.8404 64.8332 41.6311 63.9794 41.4282L63.5171 43.3741L63.0549 45.3199C63.8321 45.5046 64.4028 45.6715 64.7944 45.8156L65.4849 43.9385ZM63.5171 43.3741L64.0897 41.4578C63.1447 41.1754 62.0147 40.9608 60.7287 40.7987L60.4785 42.7829L60.2284 44.7672C61.3876 44.9134 62.2834 45.0928 62.9445 45.2904L63.5171 43.3741ZM79.1016 53.6094L77.3925 54.648C78.9713 57.246 80.3126 59.2602 81.4063 60.6453L82.9759 59.4058L84.5455 58.1663C83.6039 56.9738 82.3623 55.1237 80.8108 52.5707L79.1016 53.6094ZM82.9759 59.4058L81.4362 60.6823C82.4889 61.952 83.4353 62.9621 84.2523 63.615L85.5009 62.0526L86.7495 60.4902C86.2601 60.0992 85.5232 59.3447 84.5156 58.1294L82.9759 59.4058ZM85.5009 62.0526L84.2954 63.6485C85.1058 64.2607 86.3137 64.9937 87.6551 64.7822L87.3435 62.8066L87.0319 60.831C87.2782 60.7921 87.391 60.8631 87.2909 60.8221C87.1967 60.7836 87.0048 60.6822 86.7064 60.4568L85.5009 62.0526ZM87.3435 62.8066L88.3435 64.5386C89.3771 63.9419 90.098 62.9556 90.6211 61.8976L88.8283 61.0111L87.0355 60.1247C86.693 60.8173 86.424 61.0281 86.3435 61.0745L87.3435 62.8066ZM88.8283 61.0111L90.6455 61.8465C91.193 60.6555 91.4856 59.2553 91.5953 57.7171L89.6003 57.5749L87.6054 57.4327C87.5174 58.6669 87.2954 59.5574 87.0111 60.1758L88.8283 61.0111ZM89.6003 57.5749L91.592 57.7568C91.7398 56.1389 91.632 54.3504 91.3053 52.4126L89.3332 52.745L87.361 53.0774C87.6468 54.7733 87.7171 56.2047 87.6086 57.393L89.6003 57.5749ZM89.3332 52.745L91.3107 52.4464C91.0045 50.4186 90.3695 48.2709 89.4353 46.0112L87.587 46.7753L85.7387 47.5394C86.5789 49.5717 87.108 51.4038 87.3556 53.0436L89.3332 52.745ZM87.587 46.7753L89.4353 46.0112C88.4738 43.6854 87.2538 41.7264 85.7328 40.209L84.3203 41.6249L82.9077 43.0408C83.968 44.0986 84.9259 45.5732 85.7387 47.5394L87.587 46.7753ZM84.3203 41.6249L85.7328 40.209C84.3323 38.8119 82.8846 37.7066 81.3824 36.9514L80.4841 38.7383L79.5858 40.5252C80.6171 41.0437 81.7269 41.8628 82.9077 43.0408L84.3203 41.6249ZM80.4841 38.7383L81.4053 36.9631C79.9917 36.2295 78.6096 35.7307 77.2853 35.5712L77.046 37.5568L76.8068 39.5425C77.4992 39.6259 78.4091 39.9148 79.5629 40.5135L80.4841 38.7383ZM77.046 37.5568L77.3371 35.5781C76.7571 35.4928 76.1964 35.4454 75.6848 35.4648C75.2132 35.4827 74.5704 35.5627 73.9804 35.9033L74.9804 37.6353L75.9804 39.3674C75.8456 39.4452 75.7494 39.4668 75.7379 39.4693C75.7232 39.4725 75.7511 39.4652 75.8366 39.4619C76.0135 39.4552 76.3097 39.4701 76.755 39.5356L77.046 37.5568ZM74.9804 37.6353L73.9804 35.9033C73.2154 36.345 72.6208 36.9904 72.2566 37.8093L74.0841 38.6219L75.9116 39.4345C75.9172 39.4219 75.9215 39.4147 75.9237 39.4114C75.9258 39.4081 75.9274 39.4062 75.9288 39.4046C75.9301 39.4032 75.9424 39.3893 75.9804 39.3674L74.9804 37.6353ZM74.0841 38.6219L72.3105 37.6975C71.9246 38.438 71.7203 39.512 71.5761 40.5969L73.5587 40.8603L75.5413 41.1237C75.6092 40.6123 75.6793 40.2199 75.7468 39.9321C75.8198 39.6212 75.8691 39.5244 75.8577 39.5463L74.0841 38.6219ZM73.5587 40.8603L71.568 40.6673C71.4826 41.5481 71.6041 42.5226 71.8332 43.5228L73.7827 43.0764L75.7322 42.63C75.5502 41.8349 75.5223 41.3319 75.5493 41.0533L73.5587 40.8603ZM73.7827 43.0764L71.8345 43.5288C72.0536 44.4722 72.439 45.5811 72.9561 46.8293L74.8038 46.0638L76.6515 45.2983C76.1753 44.1489 75.88 43.2663 75.7309 42.6241L73.7827 43.0764ZM74.8038 46.0638L72.9561 46.8293C73.5112 48.1691 74.3587 49.7345 75.4624 51.5069L77.1601 50.4498L78.8579 49.3926C77.813 47.7145 77.0897 46.3559 76.6515 45.2983L74.8038 46.0638ZM77.1601 50.4498L75.4561 51.4968L77.3976 54.6564L79.1016 53.6094L80.8056 52.5623L78.8642 49.4027L77.1601 50.4498ZM110.867 29.8163L111.226 31.7838L111.258 31.778L111.289 31.7713L110.867 29.8163ZM113.851 29.5007L113.852 31.5007L113.881 31.5007L113.911 31.4998L113.851 29.5007ZM116.705 29.6706L116.393 31.6461L116.444 31.6541L116.495 31.6596L116.705 29.6706ZM119.076 30.1199L119.667 28.2093L119.66 28.207L119.076 30.1199ZM122.424 32.467L120.917 33.781L120.933 33.8002L120.951 33.8189L122.424 32.467ZM124.962 36.4554L126.806 35.6827L126.804 35.6779L124.962 36.4554ZM124.882 45.3558L126.551 46.4578L126.556 46.4493L126.562 46.4407L124.882 45.3558ZM117.377 51.858L118.26 53.6527L118.267 53.649L117.377 51.858ZM114.074 52.534L114.049 54.5339L114.063 54.5341L114.076 54.534L114.074 52.534ZM110.198 52.0159L109.68 53.9478L109.697 53.9523L109.714 53.9566L110.198 52.0159ZM106.538 50.552L105.552 52.2921L105.563 52.2986L105.575 52.3049L106.538 50.552ZM103.857 48.3468L105.442 47.1267L105.434 47.1166L105.426 47.1065L103.857 48.3468ZM100.754 40.229L98.7595 40.0763L98.7581 40.0943L98.7571 40.1125L100.754 40.229ZM102.584 35.4779L100.941 34.338L100.937 34.3441L100.933 34.3502L102.584 35.4779ZM116.639 48.6489L115.965 46.7659L115.892 46.7918L115.822 46.8232L116.639 48.6489ZM117.831 47.6673L119.368 48.9469L119.397 48.9119L119.425 48.8756L117.831 47.6673ZM118.823 45.6284L116.923 45.0044L116.915 45.03L116.907 45.0558L118.823 45.6284ZM119.183 42.8995L117.183 42.9325L117.183 42.9456L117.184 42.9588L119.183 42.8995ZM118.324 39.5839L116.517 40.4406L116.519 40.4445L118.324 39.5839ZM116.598 36.5934L114.934 37.7028L114.951 37.7295L114.97 37.7556L116.598 36.5934ZM114.831 34.4471L113.448 35.8921L113.456 35.9001L113.465 35.9081L114.831 34.4471ZM111.768 32.6971L111.802 30.6974L111.748 30.6965L111.695 30.6985L111.768 32.6971ZM109.609 33.1224L110.16 35.0453L110.198 35.0344L110.235 35.022L109.609 33.1224ZM107.857 34.2514L106.215 33.11L106.201 33.1296L106.188 33.1494L107.857 34.2514ZM107.192 37.5675L109.19 37.6469L109.191 37.624L109.191 37.6011L107.192 37.5675ZM107.341 40.0611L105.362 40.3463L105.367 40.3809L105.373 40.4153L107.341 40.0611ZM109.475 45.2795L107.811 46.389L107.828 46.4156L107.847 46.4417L109.475 45.2795ZM111.544 47.5441L110.25 49.0684L110.259 49.076L110.268 49.0835L111.544 47.5441ZM113.969 48.9002L113.351 50.8021L113.401 50.8184L113.452 50.832L113.969 48.9002ZM108.238 30.7476L109.238 32.4797C109.776 32.1694 110.43 31.9292 111.226 31.7838L110.867 29.8163L110.508 27.8488C109.324 28.0649 108.225 28.4457 107.238 29.0156L108.238 30.7476ZM110.867 29.8163L111.289 31.7713C112.121 31.5917 112.974 31.501 113.852 31.5007L113.851 29.5007L113.851 27.5007C112.696 27.5011 111.56 27.6207 110.445 27.8613L110.867 29.8163ZM113.851 29.5007L113.911 31.4998C114.797 31.4735 115.623 31.5243 116.393 31.6461L116.705 29.6706L117.018 27.6952C115.981 27.5311 114.904 27.4686 113.792 27.5016L113.851 29.5007ZM116.705 29.6706L116.495 31.6596C117.323 31.7469 117.981 31.8769 118.492 32.0328L119.076 30.1199L119.66 28.207C118.841 27.9572 117.92 27.7877 116.915 27.6817L116.705 29.6706ZM119.076 30.1199L118.484 32.0304C119.234 32.2626 120.052 32.789 120.917 33.781L122.424 32.467L123.932 31.153C122.712 29.7524 121.297 28.714 119.667 28.2094L119.076 30.1199ZM122.424 32.467L120.951 33.8189C121.843 34.7918 122.567 35.9246 123.119 37.2328L124.962 36.4554L126.804 35.6779C126.083 33.9684 125.116 32.4423 123.898 31.1151L122.424 32.467ZM124.962 36.4554L123.117 37.228C123.645 38.4882 123.936 39.796 123.992 41.1625L125.99 41.0803L127.988 40.9982C127.913 39.1571 127.518 37.3816 126.806 35.6828L124.962 36.4554ZM125.99 41.0803L123.992 41.1625C124.042 42.3892 123.764 43.3999 123.201 44.2709L124.882 45.3558L126.562 46.4407C127.609 44.8186 128.07 42.979 127.988 40.9982L125.99 41.0803ZM124.882 45.3558L123.213 44.2538C122.686 45.0512 122.138 45.7454 121.571 46.3432L123.021 47.7198L124.472 49.0964C125.217 48.311 125.909 47.4293 126.551 46.4578L124.882 45.3558ZM123.021 47.7198L121.571 46.3432C120.967 46.979 120.37 47.5351 119.778 48.0155L121.039 49.5678L122.3 51.1201C123.04 50.5196 123.763 49.8437 124.472 49.0964L123.021 47.7198ZM121.039 49.5678L119.778 48.0155C119.183 48.499 118.615 48.8928 118.074 49.2051L119.074 50.9371L120.074 52.6692C120.823 52.2367 121.565 51.7176 122.3 51.1201L121.039 49.5678ZM119.074 50.9371L118.074 49.2051C117.453 49.5637 116.925 49.8493 116.487 50.0669L117.377 51.858L118.267 53.649C118.801 53.3836 119.405 53.0553 120.074 52.6692L119.074 50.9371ZM117.377 51.858L116.495 50.0632C115.918 50.3467 115.134 50.5328 114.071 50.534L114.074 52.534L114.076 54.534C115.591 54.5322 117.01 54.2676 118.26 53.6527L117.377 51.858ZM114.074 52.534L114.098 50.5342C113.005 50.5209 111.867 50.3709 110.681 50.0753L110.198 52.0159L109.714 53.9566C111.176 54.321 112.622 54.5165 114.049 54.5339L114.074 52.534ZM110.198 52.0159L110.715 50.0841C109.571 49.7776 108.501 49.3488 107.501 48.7991L106.538 50.552L105.575 52.3049C106.864 53.0132 108.234 53.5603 109.68 53.9478L110.198 52.0159ZM106.538 50.552L107.524 48.8119C106.527 48.2472 105.863 47.6733 105.442 47.1267L103.857 48.3468L102.273 49.567C103.102 50.644 104.225 51.5403 105.552 52.2921L106.538 50.552ZM103.857 48.3468L105.426 47.1065C104.661 46.139 103.984 45.0308 103.4 43.7728L101.586 44.6155L99.7719 45.4582C100.476 46.9742 101.313 48.3536 102.288 49.5871L103.857 48.3468ZM101.586 44.6155L103.4 43.7728C102.895 42.6876 102.68 41.5552 102.75 40.3456L100.754 40.229L98.7571 40.1125C98.6482 41.9773 98.9872 43.7693 99.7719 45.4582L101.586 44.6155ZM100.754 40.229L102.748 40.3818C102.834 39.2549 103.283 38.0017 104.236 36.6057L102.584 35.4779L100.933 34.3502C99.683 36.1805 98.9113 38.0947 98.7595 40.0763L100.754 40.229ZM102.584 35.4779L104.228 36.6178C105.124 35.3251 106.732 33.927 109.238 32.4797L108.238 30.7476L107.238 29.0156C104.468 30.6151 102.306 32.3706 100.941 34.338L102.584 35.4779ZM116.639 48.6489L117.313 50.5319C118.18 50.2213 118.86 49.5576 119.368 48.9469L117.831 47.6673L116.294 46.3878C116.13 46.5844 116.009 46.701 115.933 46.7638C115.852 46.83 115.863 46.8022 115.965 46.7659L116.639 48.6489ZM117.831 47.6673L119.425 48.8756C120.017 48.0945 120.445 47.1887 120.74 46.201L118.823 45.6284L116.907 45.0558C116.722 45.6743 116.488 46.1278 116.237 46.4591L117.831 47.6673ZM118.823 45.6284L120.724 46.2524C121.076 45.1802 121.218 44.0352 121.182 42.8402L119.183 42.8995L117.184 42.9588C117.208 43.7623 117.11 44.4365 116.923 45.0044L118.823 45.6284ZM119.183 42.8995L121.183 42.8665C121.16 41.4755 120.78 40.0879 120.13 38.7233L118.324 39.5839L116.519 40.4445C116.979 41.4097 117.172 42.2325 117.183 42.9325L119.183 42.8995ZM118.324 39.5839L120.131 38.7271C119.552 37.5043 118.918 36.4018 118.225 35.4312L116.598 36.5934L114.97 37.7556C115.502 38.5012 116.02 39.3923 116.517 40.4406L118.324 39.5839ZM116.598 36.5934L118.262 35.484C117.616 34.5158 116.931 33.6726 116.197 32.9861L114.831 34.4471L113.465 35.9081C113.92 36.3332 114.412 36.921 114.934 37.7028L116.598 36.5934ZM114.831 34.4471L116.213 33.0021C115.526 32.3446 114.824 31.7873 114.108 31.3896L113.137 33.1382L112.166 34.8868C112.485 35.064 112.912 35.3793 113.448 35.8921L114.831 34.4471ZM113.137 33.1382L114.108 31.3896C113.435 31.0161 112.648 30.7116 111.802 30.6974L111.768 32.6971L111.734 34.6968C111.698 34.6962 111.714 34.6904 111.793 34.716C111.872 34.7415 111.996 34.7922 112.166 34.8868L113.137 33.1382ZM111.768 32.6971L111.695 30.6985C110.813 30.7308 109.904 30.9196 108.984 31.2228L109.609 33.1224L110.235 35.022C110.891 34.8059 111.422 34.7112 111.841 34.6958L111.768 32.6971ZM109.609 33.1224L109.059 31.1996C107.952 31.5162 106.914 32.1037 106.215 33.11L107.857 34.2514L109.499 35.3928C109.526 35.3545 109.656 35.1893 110.16 35.0453L109.609 33.1224ZM107.857 34.2514L106.188 33.1494C105.813 33.7173 105.602 34.4312 105.458 35.0668L107.409 35.5068L109.36 35.9468C109.414 35.7082 109.464 35.5393 109.504 35.4268C109.547 35.3056 109.562 35.2991 109.526 35.3534L107.857 34.2514ZM107.409 35.5068L105.458 35.0668C105.289 35.8189 105.207 36.648 105.192 37.5338L107.192 37.5675L109.191 37.6011C109.203 36.9079 109.266 36.3633 109.36 35.9468L107.409 35.5068ZM107.192 37.5675L105.193 37.4881C105.157 38.3912 105.218 39.3463 105.362 40.3463L107.341 40.0611L109.321 39.7759C109.205 38.9715 109.166 38.2641 109.19 37.6469L107.192 37.5675ZM107.341 40.0611L105.373 40.4153C105.556 41.4345 105.843 42.4343 106.23 43.4134L108.09 42.678L109.95 41.9427C109.657 41.2031 109.445 40.4584 109.31 39.7069L107.341 40.0611ZM108.09 42.678L106.23 43.4134C106.628 44.4205 107.159 45.4123 107.811 46.389L109.475 45.2795L111.139 44.1701C110.623 43.3967 110.231 42.6542 109.95 41.9427L108.09 42.678ZM109.475 45.2795L107.847 46.4417C108.551 47.4274 109.351 48.3053 110.25 49.0684L111.544 47.5441L112.839 46.0198C112.203 45.4797 111.624 44.8479 111.102 44.1173L109.475 45.2795ZM111.544 47.5441L110.268 49.0835C111.199 49.8558 112.228 50.4369 113.351 50.8021L113.969 48.9002L114.588 46.9982C113.978 46.8 113.391 46.4772 112.821 46.0048L111.544 47.5441ZM113.969 48.9002L113.452 50.832C114.813 51.1967 116.173 51.0481 117.455 50.4747L116.639 48.6489L115.822 46.8232C115.302 47.0556 114.883 47.0745 114.487 46.9683L113.969 48.9002Z" fill="#F81215" mask="url(#path-2-outside-1_3_163)"/>
<defs>
<filter id="filter0_n_3_163" x="0" y="0" width="157" height="123" filterUnits="userSpaceOnUse" color-interpolation-filters="sRGB">
<feFlood flood-opacity="0" result="BackgroundImageFix"/>
<feBlend mode="normal" in="SourceGraphic" in2="BackgroundImageFix" result="shape"/>
<feTurbulence type="fractalNoise" baseFrequency="0.25 0.25" stitchTiles="stitch" numOctaves="3" result="noise" seed="7592" />
<feColorMatrix in="noise" type="luminanceToAlpha" result="alphaNoise" />
<feComponentTransfer in="alphaNoise" result="coloredNoise1">
<feFuncA type="discrete" tableValues="1 1 1 1 1 1 1 1 1 1 1 1 1 1 1 1 1 1 1 1 1 1 1 1 1 1 1 1 1 1 1 1 1 1 1 1 1 1 1 1 1 1 1 1 1 1 1 1 1 1 1 0 0 0 0 0 0 0 0 0 0 0 0 0 0 0 0 0 0 0 0 0 0 0 0 0 0 0 0 0 0 0 0 0 0 0 0 0 0 0 0 0 0 0 0 0 0 0 0 0 "/>
</feComponentTransfer>
<feComposite operator="in" in2="shape" in="coloredNoise1" result="noise1Clipped" />
<feFlood flood-color="rgba(0, 0, 0, 0.25)" result="color1Flood" />
<feComposite operator="in" in2="noise1Clipped" in="color1Flood" result="color1" />
<feMerge result="effect1_noise_3_163">
<feMergeNode in="shape" />
<feMergeNode in="color1" />
</feMerge>
</filter>
</defs>
</svg>
